<?xml version="1.0" encoding="utf-8"?>
<!-- Generator: Adobe Illustrator 16.2.0, SVG Export Plug-In . SVG Version: 6.00 Build 0)  -->
<!DOCTYPE svg PUBLIC "-//W3C//DTD SVG 1.1//EN" "http://www.w3.org/Graphics/SVG/1.1/DTD/svg11.dtd">
<svg version="1.1" id="Capa_1" xmlns="http://www.w3.org/2000/svg" xmlns:xlink="http://www.w3.org/1999/xlink" x="0px" y="0px"
	 width="10px" height="7px" viewBox="0 0 10 7" enable-background="new 0 0 10 7" xml:space="preserve">
<g>
	<path fill="#FFFFFF" d="M9.939,5.091L5.144,0.296c-0.077-0.078-0.212-0.078-0.288,0L0.06,5.091C0.021,5.13,0,5.182,0,5.234
		C0,5.289,0.021,5.341,0.06,5.38l1.322,1.322c0.041,0.04,0.092,0.062,0.145,0.062c0.051,0,0.104-0.021,0.144-0.062L5,3.373
		l3.328,3.329c0.078,0.077,0.213,0.075,0.289,0L9.939,5.38C10.02,5.3,10.02,5.171,9.939,5.091z"/>
</g>
</svg>
