<?xml version="1.0" encoding="utf-8"?>
<!-- Generator: Adobe Illustrator 16.2.0, SVG Export Plug-In . SVG Version: 6.00 Build 0)  -->
<!DOCTYPE svg PUBLIC "-//W3C//DTD SVG 1.1//EN" "http://www.w3.org/Graphics/SVG/1.1/DTD/svg11.dtd">
<svg version="1.1" id="Capa_1" xmlns="http://www.w3.org/2000/svg" xmlns:xlink="http://www.w3.org/1999/xlink" x="0px" y="0px"
	 width="10px" height="7px" viewBox="0 0 10 7" enable-background="new 0 0 10 7" xml:space="preserve">
<g>
	<path fill="#FFFFFF" d="M9.939,1.62L8.617,0.298c-0.076-0.076-0.211-0.077-0.289,0L5,3.627L1.671,0.298
		c-0.04-0.04-0.093-0.061-0.144-0.061c-0.053,0-0.104,0.021-0.145,0.061L0.06,1.62C0.021,1.659,0,1.711,0,1.765
		C0,1.819,0.021,1.87,0.06,1.909l4.796,4.795c0.076,0.078,0.211,0.078,0.288,0l4.796-4.795C10.02,1.829,10.02,1.7,9.939,1.62z"/>
</g>
</svg>
