<?xml version="1.0" encoding="utf-8"?>
<!-- Generator: Adobe Illustrator 16.2.0, SVG Export Plug-In . SVG Version: 6.00 Build 0)  -->
<!DOCTYPE svg PUBLIC "-//W3C//DTD SVG 1.1//EN" "http://www.w3.org/Graphics/SVG/1.1/DTD/svg11.dtd">
<svg version="1.1" id="Capa_1" xmlns="http://www.w3.org/2000/svg" xmlns:xlink="http://www.w3.org/1999/xlink" x="0px" y="0px"
	 width="9px" height="9px" viewBox="7.874 7.874 9 9" enable-background="new 7.874 7.874 9 9" xml:space="preserve">
<g>
	<path fill="#38B33A" d="M16.276,14.627c-0.134,0.234-0.379,0.364-0.631,0.364c-0.123,0-0.249-0.031-0.364-0.098l-2.178-1.258v2.516
		c0,0.402-0.326,0.729-0.728,0.729c-0.402,0-0.729-0.326-0.729-0.729v-2.517l-2.179,1.259c-0.115,0.066-0.24,0.098-0.364,0.098
		c-0.251,0-0.497-0.13-0.631-0.364c-0.201-0.349-0.082-0.794,0.267-0.994l2.179-1.258l-2.179-1.259
		c-0.349-0.201-0.468-0.646-0.267-0.994c0.201-0.349,0.646-0.468,0.995-0.267l2.179,1.258V8.596c0-0.402,0.326-0.728,0.728-0.728
		s0.729,0.326,0.729,0.728v2.517l2.179-1.258c0.348-0.202,0.795-0.082,0.994,0.267c0.201,0.349,0.082,0.794-0.266,0.995
		l-2.179,1.258l2.179,1.258C16.357,13.833,16.478,14.278,16.276,14.627z"/>
</g>
</svg>
