<?xml version="1.0" encoding="utf-8"?>
<!-- Generator: Adobe Illustrator 16.2.0, SVG Export Plug-In . SVG Version: 6.00 Build 0)  -->
<!DOCTYPE svg PUBLIC "-//W3C//DTD SVG 1.1//EN" "http://www.w3.org/Graphics/SVG/1.1/DTD/svg11.dtd">
<svg version="1.1" id="Слой_1" xmlns="http://www.w3.org/2000/svg" xmlns:xlink="http://www.w3.org/1999/xlink" x="0px" y="0px"
	 width="22px" height="22px" viewBox="244 244 22 22" enable-background="new 244 244 22 22" xml:space="preserve">
<path fill="#38B33A" d="M246.472,264.62c1.936,1.937,5.065,1.968,7.04,0.071l1.369-1.368l8.204-8.204
	c2.558-2.569,2.553-6.724-0.011-9.288s-6.719-2.568-9.288-0.011l-8.204,8.204c-0.195,0.196-0.271,0.48-0.2,0.747
	c0.071,0.267,0.28,0.476,0.547,0.547c0.267,0.072,0.552-0.004,0.748-0.2l8.204-8.205c1.972-1.912,5.113-1.888,7.056,0.055
	s1.967,5.084,0.055,7.056l-0.548,0.547l-7.657,7.657l-1.367,1.368c-1.359,1.359-3.563,1.36-4.924,0.001
	c-1.36-1.359-1.36-3.564,0-4.924l1.641-1.642l7.386-7.383c0.755-0.755,1.979-0.755,2.734,0c0.755,0.755,0.755,1.979,0,2.735
	l-7.383,7.386c-0.302,0.302-0.302,0.792,0,1.094s0.792,0.302,1.094,0l7.383-7.386c1.351-1.361,1.347-3.558-0.009-4.913
	c-1.355-1.356-3.553-1.36-4.913-0.009l-7.384,7.383l-1.641,1.642C244.506,259.554,244.537,262.683,246.472,264.62z"/>
</svg>
