<?xml version="1.0" encoding="utf-8"?>
<!-- Generator: Adobe Illustrator 16.2.0, SVG Export Plug-In . SVG Version: 6.00 Build 0)  -->
<!DOCTYPE svg PUBLIC "-//W3C//DTD SVG 1.1//EN" "http://www.w3.org/Graphics/SVG/1.1/DTD/svg11.dtd">
<svg version="1.1" id="Capa_1" xmlns="http://www.w3.org/2000/svg" xmlns:xlink="http://www.w3.org/1999/xlink" x="0px" y="0px"
	 width="16px" height="16px" viewBox="0.5 0.5 16 16" enable-background="new 0.5 0.5 16 16" xml:space="preserve">
<g>
	<g>
		<path fill="#38B33A" d="M16.49,14.716l-0.632-3.512c-0.061-0.34-0.386-0.566-0.727-0.504c-0.339,0.061-0.564,0.386-0.503,0.726
			l0.393,2.187l-5.896-3.404V3.051l1.456,1.456c0.244,0.244,0.64,0.244,0.884,0c0.245-0.244,0.245-0.64,0-0.884L8.942,1.1
			c-0.244-0.244-0.64-0.244-0.883,0L5.536,3.623c-0.244,0.244-0.244,0.64,0,0.884c0.244,0.244,0.64,0.244,0.883,0l1.456-1.456v7.157
			l-5.896,3.404l0.394-2.187c0.061-0.34-0.165-0.665-0.504-0.726c-0.339-0.063-0.665,0.164-0.726,0.504L0.51,14.716
			c-0.061,0.337,0.164,0.664,0.504,0.726l3.512,0.632c0.338,0.061,0.665-0.164,0.726-0.505c0.061-0.339-0.165-0.664-0.504-0.725
			l-1.831-0.33L8.5,11.29l5.584,3.224l-1.831,0.33c-0.34,0.061-0.565,0.386-0.505,0.725c0.062,0.341,0.387,0.565,0.727,0.505
			l3.511-0.632C16.319,15.383,16.552,15.061,16.49,14.716z"/>
	</g>
</g>
</svg>
