<?xml version="1.0" encoding="utf-8"?>
<!-- Generator: Adobe Illustrator 16.2.0, SVG Export Plug-In . SVG Version: 6.00 Build 0)  -->
<!DOCTYPE svg PUBLIC "-//W3C//DTD SVG 1.1//EN" "http://www.w3.org/Graphics/SVG/1.1/DTD/svg11.dtd">
<svg version="1.1" id="Capa_1" xmlns="http://www.w3.org/2000/svg" xmlns:xlink="http://www.w3.org/1999/xlink" x="0px" y="0px"
	 width="10px" height="10px" viewBox="27.5 27.5 10 10" enable-background="new 27.5 27.5 10 10" xml:space="preserve">
<g>
	<g>
		<path fill="#BF986C" d="M32.381,27.51c-0.359,0.068-0.614,0.389-0.601,0.754v7.027l-0.097-0.215
			c-0.068-0.133-0.156-0.254-0.261-0.358l-1.982-1.975c-0.249-0.261-0.649-0.304-0.948-0.104c-0.025,0.019-0.048,0.039-0.07,0.061
			c-0.28,0.279-0.281,0.733-0.001,1.012l3.578,3.577c0,0.001,0,0.001,0,0.001c0.279,0.279,0.732,0.279,1.012-0.001l3.577-3.577
			c0.022-0.023,0.043-0.048,0.062-0.073c0.233-0.319,0.165-0.767-0.154-1c-0.299-0.201-0.699-0.157-0.948,0.104l-1.979,1.979
			c-0.117,0.117-0.215,0.254-0.286,0.404l-0.071,0.153v-7.055c0.001-0.041-0.002-0.083-0.009-0.124
			C33.139,27.711,32.771,27.446,32.381,27.51z"/>
	</g>
</g>
</svg>
