<?xml version="1.0" encoding="utf-8"?>
<!-- Generator: Adobe Illustrator 16.2.0, SVG Export Plug-In . SVG Version: 6.00 Build 0)  -->
<!DOCTYPE svg PUBLIC "-//W3C//DTD SVG 1.1//EN" "http://www.w3.org/Graphics/SVG/1.1/DTD/svg11.dtd">
<svg version="1.1" id="Capa_1" xmlns="http://www.w3.org/2000/svg" xmlns:xlink="http://www.w3.org/1999/xlink" x="0px" y="0px"
	 width="10px" height="10px" viewBox="27.5 27.5 10 10" enable-background="new 27.5 27.5 10 10" xml:space="preserve">
<g>
	<g>
		<path fill="#BF986C" d="M33.202,36.899c0.007-0.041,0.01-0.083,0.009-0.124V29.72l0.071,0.154c0.071,0.15,0.169,0.287,0.286,0.404
			l1.979,1.979c0.249,0.261,0.649,0.304,0.948,0.104c0.319-0.233,0.388-0.681,0.154-1c-0.019-0.025-0.039-0.05-0.062-0.073
			l-3.577-3.577c-0.279-0.28-0.732-0.28-1.012,0c0,0,0,0,0,0l-3.578,3.577c-0.279,0.28-0.278,0.733,0.001,1.012
			c0.022,0.022,0.045,0.042,0.07,0.061c0.299,0.201,0.699,0.157,0.948-0.104l1.982-1.975c0.105-0.105,0.193-0.226,0.261-0.358
			l0.097-0.215v7.027c-0.014,0.365,0.242,0.686,0.601,0.754C32.771,37.554,33.139,37.289,33.202,36.899z"/>
	</g>
</g>
</svg>
