<?xml version="1.0" encoding="utf-8"?>
<!-- Generator: Adobe Illustrator 16.2.0, SVG Export Plug-In . SVG Version: 6.00 Build 0)  -->
<!DOCTYPE svg PUBLIC "-//W3C//DTD SVG 1.1//EN" "http://www.w3.org/Graphics/SVG/1.1/DTD/svg11.dtd">
<svg version="1.1" id="Layer_1" xmlns="http://www.w3.org/2000/svg" xmlns:xlink="http://www.w3.org/1999/xlink" x="0px" y="0px"
	 width="16px" height="16px" viewBox="248 248 16 16" enable-background="new 248 248 16 16" xml:space="preserve">
<g>
	<path fill="#38B33A" d="M263.997,251.946c-0.019-0.172-0.126-0.325-0.286-0.399l-7.5-3.5c-0.134-0.063-0.289-0.063-0.423,0
		l-7.5,3.5c-0.16,0.075-0.267,0.227-0.286,0.399c0,0.003-0.003,0.051-0.003,0.054v8.5c0,0.204,0.125,0.389,0.314,0.465l7.5,3
		c0.06,0.023,0.123,0.035,0.186,0.035s0.126-0.012,0.186-0.035l7.5-3c0.19-0.076,0.314-0.261,0.314-0.465V252
		C264,251.997,263.997,251.949,263.997,251.946z M256,249.052l6.242,2.913l-2.403,0.961l-6.36-2.698L256,249.052z M252.26,250.797
		l6.261,2.656L256,254.461l-6.242-2.497L252.26,250.797z M249,252.739l6.5,2.6v7.423l-6.5-2.601V252.739z M256.5,262.761v-7.423
		l6.5-2.6v7.422L256.5,262.761z"/>
</g>
</svg>
