<?xml version="1.0" encoding="utf-8"?>
<!-- Generator: Adobe Illustrator 16.2.0, SVG Export Plug-In . SVG Version: 6.00 Build 0)  -->
<!DOCTYPE svg PUBLIC "-//W3C//DTD SVG 1.1//EN" "http://www.w3.org/Graphics/SVG/1.1/DTD/svg11.dtd">
<svg version="1.1" id="Capa_1" xmlns="http://www.w3.org/2000/svg" xmlns:xlink="http://www.w3.org/1999/xlink" x="0px" y="0px"
	 width="36px" height="31px" viewBox="237.5 240.5 36 31" enable-background="new 237.5 240.5 36 31" xml:space="preserve">
<g>
	<path fill="#38B33A" d="M272.946,246.5H263.5v-2.123c0-2.349-2.001-3.877-4.35-3.877h-6.301c-2.348,0-4.35,1.528-4.35,3.877v2.123
		h-9.445c-0.583,0-1.555,0.445-1.555,1.027v19.16c0,2.864,2.83,4.813,5.694,4.813h25.611c2.864,0,4.694-1.948,4.694-4.813v-19.16
		C273.5,246.945,273.528,246.5,272.946,246.5z M258.5,260.236c0,1.319-1.181,2.394-2.5,2.394s-2.5-1.074-2.5-2.394V257.5h5V260.236z
		 M259.448,255.5h-6.895c-0.583,0-1.052,0.706-1.052,1.288v1.916c-6-1.331-10.733-5.204-11.325-10.204h31.65
		c-0.592,5-5.325,8.873-11.325,10.204v-1.915C260.5,256.206,260.031,255.5,259.448,255.5L259.448,255.5z M250.5,244.377
		c0-1.186,1.165-1.877,2.35-1.877h6.301c1.186,0,2.35,0.691,2.35,1.877v2.123h-11V244.377L250.5,244.377z M271.5,266.687
		c0,1.701-0.993,2.813-2.694,2.813h-25.611c-1.701,0-3.694-1.083-3.694-2.896v-13.667c1,1.301,2.712,3.425,4.038,4.419
		c2.299,1.724,5.028,2.921,8.082,3.511c0.308,2.185,2.151,3.87,4.419,3.87c2.267,0,4.129-1.686,4.438-3.87
		c3.054-0.59,5.653-1.787,7.952-3.511c1.326-0.995,3.071-2.119,3.071-3.336V266.687z"/>
</g>
</svg>
