<?xml version="1.0" encoding="utf-8"?>
<!-- Generator: Adobe Illustrator 16.0.0, SVG Export Plug-In . SVG Version: 6.00 Build 0)  -->
<!DOCTYPE svg PUBLIC "-//W3C//DTD SVG 1.1//EN" "http://www.w3.org/Graphics/SVG/1.1/DTD/svg11.dtd">
<svg version="1.1" id="Capa_1" xmlns="http://www.w3.org/2000/svg" xmlns:xlink="http://www.w3.org/1999/xlink" x="0px" y="0px"
	 width="16px" height="16px" viewBox="0 0 16 16" enable-background="new 0 0 16 16" xml:space="preserve">
<g>
	<g>
		<path fill="#BF986C" d="M8,0C3.589,0,0,3.589,0,8c0,4.41,3.589,8,8,8c4.41,0,8-3.59,8-8C16,3.589,12.41,0,8,0z M8,14.298
			c-3.474,0-6.299-2.825-6.299-6.298S4.526,1.701,8,1.701c3.473,0,6.298,2.826,6.298,6.299S11.473,14.298,8,14.298z"/>
		<path fill="#BF986C" d="M12.168,7.753H8.574V3.43c0-0.363-0.295-0.659-0.658-0.659c-0.364,0-0.659,0.296-0.659,0.659v4.98
			c0,0.365,0.295,0.66,0.659,0.66h4.252c0.365,0,0.66-0.295,0.66-0.66C12.828,8.047,12.533,7.753,12.168,7.753z"/>
	</g>
</g>
</svg>
