<?xml version="1.0" encoding="utf-8"?>
<!-- Generator: Adobe Illustrator 16.2.0, SVG Export Plug-In . SVG Version: 6.00 Build 0)  -->
<!DOCTYPE svg PUBLIC "-//W3C//DTD SVG 1.1//EN" "http://www.w3.org/Graphics/SVG/1.1/DTD/svg11.dtd">
<svg version="1.1" id="Слой_1" xmlns="http://www.w3.org/2000/svg" xmlns:xlink="http://www.w3.org/1999/xlink" x="0px" y="0px"
	 width="15px" height="15px" viewBox="157 157 15 15" enable-background="new 157 157 15 15" xml:space="preserve">
<path fill="#BF986C" d="M165.874,164.5l5.841-5.841c0.38-0.38,0.38-0.994,0-1.375c-0.38-0.38-0.994-0.38-1.374,0l-5.841,5.841
	l-5.841-5.841c-0.38-0.38-0.994-0.38-1.374,0c-0.38,0.38-0.38,0.995,0,1.375l5.841,5.841l-5.841,5.84
	c-0.38,0.381-0.38,0.995,0,1.375c0.189,0.189,0.438,0.284,0.687,0.284c0.249,0,0.498-0.095,0.687-0.284l5.841-5.841l5.841,5.841
	c0.189,0.189,0.438,0.284,0.688,0.284c0.248,0,0.497-0.095,0.687-0.284c0.38-0.38,0.38-0.994,0-1.375L165.874,164.5z"/>
</svg>
