<?xml version="1.0" encoding="utf-8"?>
<!-- Generator: Adobe Illustrator 16.0.0, SVG Export Plug-In . SVG Version: 6.00 Build 0)  -->
<!DOCTYPE svg PUBLIC "-//W3C//DTD SVG 1.1//EN" "http://www.w3.org/Graphics/SVG/1.1/DTD/svg11.dtd">
<svg version="1.1" id="Слой_1" xmlns="http://www.w3.org/2000/svg" xmlns:xlink="http://www.w3.org/1999/xlink" x="0px" y="0px"
	 width="24px" height="23px" viewBox="328.5 329.5 24 23" enable-background="new 328.5 329.5 24 23" xml:space="preserve">
<path fill="#FFFFFF" d="M349.697,329.5h-17.384c-1.818,0-3.813,2.032-3.813,3.844v10.602c0,1.809,1,3.279,3,3.285v4.811l7.74-4.541
	h10.458c1.818,0,2.803-1.742,2.803-3.555v-10.603C352.5,331.532,351.516,329.5,349.697,329.5z M350.5,344.039
	c0,1.039-0.15,1.461-1.156,1.461h-10.498l-5.127,3.563l0.063-3.563h-1.184c-1.004,0-1.688-0.688-1.8-1.809l0.031-10.674
	c-0.021-0.689,0.764-1.518,1.769-1.518h16.748c1.006,0,1.154,1.062,1.154,2.101V344.039L350.5,344.039z"/>
<path fill="#FFFFFF" d="M334.5,334.5h12v2h-12V334.5z"/>
<path fill="#FFFFFF" d="M334.5,337.5h12v2h-12V337.5z"/>
<path fill="#FFFFFF" d="M334.5,340.5h12v2h-12V340.5z"/>
</svg>
