<?xml version="1.0" encoding="utf-8"?>
<!-- Generator: Adobe Illustrator 16.2.0, SVG Export Plug-In . SVG Version: 6.00 Build 0)  -->
<!DOCTYPE svg PUBLIC "-//W3C//DTD SVG 1.1//EN" "http://www.w3.org/Graphics/SVG/1.1/DTD/svg11.dtd">
<svg version="1.1" id="Capa_1" xmlns="http://www.w3.org/2000/svg" xmlns:xlink="http://www.w3.org/1999/xlink" x="0px" y="0px"
	 width="36px" height="31.498px" viewBox="237.5 240.002 36 31.498" enable-background="new 237.5 240.002 36 31.498"
	 xml:space="preserve">
<g>
	<path fill="#38B33A" d="M256.046,252.472c3.438,0,6.235-2.797,6.235-6.235c0-3.438-2.797-6.235-6.235-6.235
		s-6.235,2.797-6.235,6.235C249.811,249.675,252.608,252.472,256.046,252.472z M256.046,242.152c2.252,0,4.085,1.833,4.085,4.085
		c0,2.252-1.833,4.085-4.085,4.085s-4.085-1.833-4.085-4.085C251.961,243.984,253.793,242.152,256.046,242.152z"/>
	<path fill="#38B33A" d="M268.659,252.472c2.174,0,3.941-1.768,3.941-3.942c0-2.173-1.768-3.941-3.941-3.941
		s-3.941,1.768-3.941,3.941C264.718,250.704,266.486,252.472,268.659,252.472z M268.659,246.739c0.987,0,1.792,0.804,1.792,1.792
		c0,0.988-0.805,1.792-1.792,1.792c-0.988,0-1.792-0.804-1.792-1.792C266.867,247.542,267.671,246.739,268.659,246.739z"/>
	<path fill="#38B33A" d="M268.953,254.5h-1.662c-1.387,0-3.078,1.158-3.849,2.82c-1.587-1.732-3.866-2.82-6.396-2.82h-2.003
		c-2.529,0-4.808,1.088-6.395,2.82c-0.77-1.663-2.462-2.82-4.421-2.82h-1.662c-2.684,0-5.065,2.579-5.065,5.245v7.827
		c0,1.159,1.144,1.928,2.306,1.928h6.574c0.11,1,1.189,2,2.5,2h14.33c1.312,0,2.391-1,2.501-2h6.499c1.203,0,1.29-0.803,1.29-2.001
		v-7.754c0-2.666-2.25-5.245-3.974-5.245H268.953z M239.5,259.62c-0.01-1.745,1.375-3.12,3.184-3.12h1.662
		c1.841,0,3.154,1.733,3.154,3.214l-0.023-0.269c-1,1.882-1.102,4.047-1.102,8.047l-6.875-0.117V259.62z M263.5,269.457
		c0,0.197-0.091,0.043-0.29,0.043h-14.33c-0.198,0-0.38,0.154-0.38-0.043v-5.874c0-3.598,1.75-7.083,6.668-7.083h2.003
		c4.328,0,6.328,3.485,6.328,7.083V269.457z M271.5,267.499c0,0.036,0.892,0.023-6.031,0.023c0-4.06,0.04-6.466-0.96-8.345
		l-0.056,0.411c0-1.48,1.109-3.089,2.65-3.089h1.662c1.984,0,2.734,2.125,2.734,3.245V267.499z"/>
	<path fill="#38B33A" d="M243.432,252.472c2.174,0,3.942-1.768,3.942-3.942c0-2.173-1.768-3.941-3.942-3.941
		c-2.173,0-3.941,1.768-3.941,3.941C239.49,250.704,241.259,252.472,243.432,252.472z M243.432,246.739
		c0.988,0,1.792,0.804,1.792,1.792c0,0.988-0.804,1.792-1.792,1.792c-0.988,0-1.792-0.804-1.792-1.792
		C241.64,247.542,242.444,246.739,243.432,246.739z"/>
</g>
</svg>
