<?xml version="1.0" encoding="utf-8"?>
<!-- Generator: Adobe Illustrator 16.2.0, SVG Export Plug-In . SVG Version: 6.00 Build 0)  -->
<!DOCTYPE svg PUBLIC "-//W3C//DTD SVG 1.1//EN" "http://www.w3.org/Graphics/SVG/1.1/DTD/svg11.dtd">
<svg version="1.1" id="Capa_1" xmlns="http://www.w3.org/2000/svg" xmlns:xlink="http://www.w3.org/1999/xlink" x="0px" y="0px"
	 width="30px" height="30px" viewBox="17.5 17.5 30 30" enable-background="new 17.5 17.5 30 30" xml:space="preserve">
<g>
	<g>
		<path fill="#FFFFFF" d="M47.464,36.681c-0.111-0.379-0.46-0.64-0.856-0.64h-3.416V18.99c0-0.493-0.4-0.892-0.893-0.892H22.701
			c-0.493,0-0.892,0.399-0.892,0.892v17.051h-3.417c-0.396,0-0.744,0.261-0.856,0.64c-0.111,0.38,0.041,0.788,0.374,1.002
			l14.108,9.078c0.146,0.095,0.314,0.142,0.482,0.142s0.336-0.048,0.483-0.143l14.108-9.077
			C47.424,37.469,47.575,37.061,47.464,36.681z M32.5,44.949l-11.073-7.124h1.274c0.493,0,0.892-0.399,0.892-0.893v-17.05h17.813
			v17.05c0,0.493,0.399,0.893,0.893,0.893h1.273L32.5,44.949z"/>
	</g>
</g>
<g>
	<g>
		<path fill="#FFFFFF" d="M30.458,25.256c-1.007-1.007-2.646-1.007-3.654,0s-1.007,2.646,0,3.654
			c0.503,0.504,1.165,0.755,1.827,0.755c0.661,0,1.323-0.251,1.827-0.755C31.466,27.903,31.466,26.264,30.458,25.256z
			 M29.197,27.649c-0.312,0.312-0.819,0.312-1.13,0c-0.312-0.312-0.312-0.819,0-1.131c0.156-0.156,0.36-0.234,0.565-0.234
			c0.205,0,0.41,0.078,0.565,0.234C29.509,26.83,29.509,27.337,29.197,27.649z"/>
	</g>
</g>
<g>
	<g>
		<path fill="#FFFFFF" d="M38.195,30.996c-1.007-1.007-2.646-1.007-3.653,0c-1.008,1.008-1.008,2.647,0,3.654
			c0.503,0.504,1.164,0.755,1.826,0.755s1.324-0.251,1.827-0.755C39.203,33.643,39.203,32.004,38.195,30.996z M36.934,33.389
			c-0.312,0.312-0.818,0.312-1.131,0c-0.15-0.151-0.233-0.353-0.233-0.565c0-0.213,0.083-0.415,0.233-0.565
			c0.156-0.156,0.36-0.233,0.565-0.233s0.41,0.078,0.565,0.233c0.151,0.151,0.234,0.352,0.234,0.565
			C37.168,33.036,37.085,33.237,36.934,33.389z"/>
	</g>
</g>
<g>
	<g>
		<path fill="#FFFFFF" d="M36.526,23.642c-0.416-0.263-0.967-0.138-1.229,0.279l-7.01,11.133c-0.263,0.417-0.137,0.968,0.28,1.229
			c0.147,0.094,0.312,0.138,0.475,0.138c0.296,0,0.586-0.147,0.756-0.417l7.01-11.132C37.069,24.456,36.944,23.904,36.526,23.642z"
			/>
	</g>
</g>
</svg>
