<?xml version="1.0" encoding="utf-8"?>
<!-- Generator: Adobe Illustrator 16.2.0, SVG Export Plug-In . SVG Version: 6.00 Build 0)  -->
<!DOCTYPE svg PUBLIC "-//W3C//DTD SVG 1.1//EN" "http://www.w3.org/Graphics/SVG/1.1/DTD/svg11.dtd">
<svg version="1.1" id="Capa_1" xmlns="http://www.w3.org/2000/svg" xmlns:xlink="http://www.w3.org/1999/xlink" x="0px" y="0px"
	 width="15px" height="15px" viewBox="1 1 15 15" enable-background="new 1 1 15 15" xml:space="preserve">
<g>
	<g>
		<path fill="#38B33A" d="M13.321,8.5c-0.296,0-0.535,0.24-0.535,0.535v5.358c0,0.296-0.24,0.534-0.536,0.534H2.606
			c-0.295,0-0.536-0.238-0.536-0.534V3.678c0-0.296,0.241-0.536,0.536-0.536h6.429c0.296,0,0.537-0.24,0.537-0.536
			c0-0.295-0.241-0.535-0.537-0.535H2.606C1.719,2.071,1,2.791,1,3.678v10.715C1,15.28,1.719,16,2.606,16h9.644
			c0.888,0,1.606-0.72,1.606-1.606V9.035C13.856,8.74,13.617,8.5,13.321,8.5z"/>
	</g>
</g>
<g>
	<g>
		<path fill="#38B33A" d="M15.399,1.601C15.014,1.216,14.493,1,13.949,1c-0.545-0.001-1.066,0.214-1.45,0.601L5.442,8.657
			C5.384,8.716,5.339,8.788,5.313,8.867l-1.072,3.215c-0.093,0.279,0.058,0.584,0.339,0.676c0.054,0.019,0.112,0.028,0.169,0.028
			s0.114-0.01,0.169-0.028l3.214-1.07c0.079-0.027,0.15-0.072,0.209-0.131l7.057-7.056C16.2,3.7,16.2,2.401,15.399,1.601z
			 M14.643,3.744l-6.965,6.963l-2.081,0.696L6.29,9.326l6.966-6.965c0.383-0.383,1.004-0.382,1.387,0.001
			c0.182,0.183,0.285,0.43,0.285,0.689C14.929,3.311,14.826,3.56,14.643,3.744z"/>
	</g>
</g>
</svg>
