<?xml version="1.0" encoding="utf-8"?>
<!-- Generator: Adobe Illustrator 16.2.0, SVG Export Plug-In . SVG Version: 6.00 Build 0)  -->
<!DOCTYPE svg PUBLIC "-//W3C//DTD SVG 1.1//EN" "http://www.w3.org/Graphics/SVG/1.1/DTD/svg11.dtd">
<svg version="1.1" id="Capa_1" xmlns="http://www.w3.org/2000/svg" xmlns:xlink="http://www.w3.org/1999/xlink" x="0px" y="0px"
	 width="30px" height="30px" viewBox="17.5 17.5 30 30" enable-background="new 17.5 17.5 30 30" xml:space="preserve">
<g>
	<g>
		<path fill="#FFFFFF" d="M45.102,29.615c-0.325-0.209-0.671-0.381-1.031-0.512c-0.553-5.897-5.53-10.528-11.57-10.528
			c-6.04,0-11.018,4.631-11.571,10.528c-0.359,0.131-0.705,0.302-1.029,0.512c-1.502,0.967-2.399,2.611-2.399,4.396V35.7
			c0,2.881,2.345,5.226,5.226,5.226h1.179c0.915,0,1.66-0.745,1.66-1.66v-8.82c0-0.916-0.745-1.661-1.66-1.661h-1.179
			c-0.029,0-0.059,0.001-0.088,0.001c0.688-4.827,4.848-8.551,9.862-8.551c5.015,0,9.175,3.724,9.861,8.551
			c-0.028-0.001-0.059-0.001-0.088-0.001h-1.178c-0.916,0-1.661,0.745-1.661,1.66v8.82c0,0.915,0.745,1.66,1.661,1.66h1.114
			c-0.699,2.223-2.779,3.838-5.229,3.838c-0.459,0-0.831,0.372-0.831,0.83c0,0.459,0.372,0.831,0.831,0.831
			c3.476,0,6.38-2.497,7.013-5.79c2.04-0.713,3.507-2.655,3.507-4.935v-1.689C47.5,32.226,46.604,30.582,45.102,29.615z
			 M22.726,30.445h1.179l0.001,8.82c0,0,0,0-0.001,0h-1.179c-1.966,0-3.566-1.6-3.566-3.565v-1.689c0-1.218,0.613-2.339,1.639-3
			C21.373,30.641,22.039,30.445,22.726,30.445z M45.839,35.7c0,1.966-1.6,3.565-3.565,3.565h-1.178v-8.82h1.178
			c0.688,0,1.354,0.195,1.929,0.566c1.025,0.66,1.637,1.782,1.637,3V35.7z"/>
	</g>
</g>
</svg>
