<?xml version="1.0" encoding="utf-8"?>
<!-- Generator: Adobe Illustrator 16.2.0, SVG Export Plug-In . SVG Version: 6.00 Build 0)  -->
<!DOCTYPE svg PUBLIC "-//W3C//DTD SVG 1.1//EN" "http://www.w3.org/Graphics/SVG/1.1/DTD/svg11.dtd">
<svg version="1.1" id="Layer_1" xmlns="http://www.w3.org/2000/svg" xmlns:xlink="http://www.w3.org/1999/xlink" x="0px" y="0px"
	 width="16px" height="16px" viewBox="0.5 0.5 16 16" enable-background="new 0.5 0.5 16 16" xml:space="preserve">
<g>
	<g>
		<path fill="#38B33A" d="M6.593,12.71c-0.176-0.177-0.447-0.177-0.624,0l-1.606,1.621V2.663l1.614,1.629
			c0.085,0.085,0.19,0.132,0.313,0.132c0.12,0,0.229-0.047,0.314-0.132l0.24-0.242C6.93,3.965,6.975,3.852,6.975,3.731
			c0-0.121-0.046-0.234-0.132-0.319l-2.781-2.78C3.976,0.544,3.859,0.498,3.74,0.5C3.616,0.498,3.499,0.544,3.413,0.631l-2.78,2.779
			c-0.17,0.17-0.17,0.469,0,0.638l0.242,0.242c0.176,0.175,0.474,0.175,0.649,0l1.587-1.576v11.577l-1.595-1.584
			c-0.176-0.176-0.468-0.176-0.644,0L0.628,12.95c-0.17,0.17-0.171,0.469-0.001,0.638l2.779,2.781
			c0.087,0.087,0.203,0.133,0.322,0.131c0.125,0.002,0.241-0.044,0.328-0.131l2.779-2.779c0.171-0.171,0.171-0.469,0-0.638
			L6.593,12.71z"/>
	</g>
</g>
<rect x="10" y="1" fill="#38B33A" width="1" height="15"/>
<rect x="10" y="1" fill="#38B33A" width="6" height="1"/>
<rect x="10" y="15" fill="#38B33A" width="6" height="1"/>
</svg>
