<?xml version="1.0" encoding="utf-8"?>
<!-- Generator: Adobe Illustrator 16.2.0, SVG Export Plug-In . SVG Version: 6.00 Build 0)  -->
<!DOCTYPE svg PUBLIC "-//W3C//DTD SVG 1.1//EN" "http://www.w3.org/Graphics/SVG/1.1/DTD/svg11.dtd">
<svg version="1.1" id="Слой_1" xmlns="http://www.w3.org/2000/svg" xmlns:xlink="http://www.w3.org/1999/xlink" x="0px" y="0px"
	 width="16px" height="16px" viewBox="0 0 16 16" enable-background="new 0 0 16 16" xml:space="preserve">
<g>
	<path fill="#38B33A" d="M8,1c0.134,0,0.253,0.047,0.346,0.137l6.526,6.329c0.11,0.108,0.127,0.234,0.127,0.3
		s-0.017,0.19-0.129,0.299c-0.098,0.095-0.22,0.147-0.37,0.147c-0.553,0-1,0.447-1,1v4.631c0,0.454-0.623,1.157-0.938,1.157H10.5
		v-1.591c0-0.753-0.527-2.228-1.747-2.228H7.248c-1.125,0-1.747,1.317-1.747,2.228V15H3.438C3.124,15,2.5,14.297,2.5,13.843V9.212
		c0-0.465-0.349-0.855-0.789-0.967c-0.057-0.018-0.117-0.031-0.17-0.039c-0.03-0.004-0.06-0.007-0.09-0.008
		C1.337,8.193,1.223,8.14,1.127,8.048C1.023,7.947,1.001,7.835,1.001,7.759c0-0.061,0.015-0.178,0.116-0.283
		c0.005-0.005,0.01-0.01,0.015-0.015l6.524-6.326C7.748,1.047,7.866,1,8,1 M8,0C7.606,0,7.237,0.148,6.958,0.419L0.436,6.744
		C0.434,6.746,0.43,6.748,0.428,6.75c-0.57,0.558-0.57,1.461,0.004,2.016C0.694,9.021,1.039,9.182,1.41,9.197
		c0.015,0.002,0.03,0.015,0.045,0.015H1.5v4.631C1.5,14.765,2.489,16,3.438,16h2.553c0.26,0,0.51-0.688,0.51-0.939v-1.651
		c0-0.421,0.313-1.228,0.747-1.228h1.505c0.435,0,0.747,0.809,0.747,1.228v1.651C9.5,15.313,9.75,16,10.009,16h2.554
		c0.949,0,1.938-1.235,1.938-2.157V9.212h0.027c0.394,0,0.764-0.161,1.041-0.432c0.574-0.555,0.574-1.474,0-2.032L9.042,0.419
		C8.764,0.148,8.395,0,8,0L8,0z"/>
</g>
</svg>
