<?xml version="1.0" encoding="utf-8"?>
<!-- Generator: Adobe Illustrator 16.2.0, SVG Export Plug-In . SVG Version: 6.00 Build 0)  -->
<!DOCTYPE svg PUBLIC "-//W3C//DTD SVG 1.1//EN" "http://www.w3.org/Graphics/SVG/1.1/DTD/svg11.dtd">
<svg version="1.1" id="Capa_1" xmlns="http://www.w3.org/2000/svg" xmlns:xlink="http://www.w3.org/1999/xlink" x="0px" y="0px"
	 width="42px" height="42px" viewBox="235 235 42 42" enable-background="new 235 235 42 42" xml:space="preserve">
<g>
	<path fill="#38B33A" d="M263.352,245.339c-4.163-3.697-10.703-3.848-15.032,0.32c-1.744,1.68-2.901,3.887-3.259,6.214
		c-0.448,2.91,0.236,5.81,1.923,8.168c4.616,6.449,4.03,11.57,4.095,11.95c0,1.349,0.509,2.609,1.435,3.549
		c0.926,0.94,2.164,1.459,3.487,1.459c2.714,0,4.922-2.208,4.922-4.922c0.057-0.351-0.502-5.973,3.911-11.787
		c1.466-1.933,2.241-4.239,2.241-6.67C267.074,250.459,265.718,247.44,263.352,245.339L263.352,245.339z M256,274.962
		c-1.352,0-2.417-1.462-2.459-2.462h4.92C258.461,273.5,257.358,274.962,256,274.962z M262.872,258.745
		c-2.462,3.244-3.934,7.755-4.312,10.755h-5.133c-0.407-3-1.922-7.428-4.442-10.949c-1.311-1.831-1.841-4.062-1.492-6.333
		c0.598-3.891,4.079-7.225,8.518-7.225c4.812,0,8.602,3.906,8.602,8.591C264.614,255.473,264.012,257.243,262.872,258.745z"/>
	<path fill="#38B33A" d="M256,240.086c0.68,0,1.5-0.551,1.5-1.231v-2.625c0-0.68-0.82-1.231-1.5-1.231s-1.5,0.551-1.5,1.231v2.625
		C254.5,239.535,255.321,240.086,256,240.086z"/>
	<path fill="#38B33A" d="M269.403,247.304l2.131-1.231c0.589-0.339,0.791-1.092,0.451-1.681s-1.093-0.79-1.681-0.45l-2.131,1.23
		c-0.589,0.34-0.791,1.092-0.451,1.681C268.064,247.445,268.818,247.642,269.403,247.304L269.403,247.304z"/>
	<path fill="#38B33A" d="M242.597,259.938l-2.131,1.23c-0.588,0.34-0.791,1.093-0.45,1.681c0.341,0.591,1.095,0.788,1.681,0.45
		l2.131-1.229c0.588-0.34,0.79-1.093,0.45-1.682C243.939,259.8,243.186,259.598,242.597,259.938z"/>
	<path fill="#38B33A" d="M262.768,241.899c0.586,0.338,1.339,0.141,1.681-0.451l1.23-2.131c0.34-0.588,0.139-1.341-0.45-1.681
		s-1.342-0.138-1.681,0.45l-1.23,2.131C261.978,240.807,262.179,241.559,262.768,241.899z"/>
	<path fill="#38B33A" d="M247.552,241.448c0.342,0.592,1.095,0.789,1.681,0.451c0.589-0.34,0.79-1.092,0.451-1.681l-1.23-2.131
		c-0.34-0.588-1.093-0.79-1.681-0.45s-0.79,1.092-0.45,1.681L247.552,241.448z"/>
	<path fill="#38B33A" d="M271.533,261.169l-2.131-1.23c-0.588-0.34-1.341-0.138-1.681,0.45c-0.34,0.589-0.138,1.342,0.451,1.682
		l2.131,1.229c0.585,0.338,1.339,0.141,1.681-0.45C272.324,262.261,272.122,261.509,271.533,261.169z"/>
	<path fill="#38B33A" d="M243.828,245.173l-2.131-1.23c-0.589-0.34-1.341-0.138-1.681,0.45c-0.34,0.588-0.138,1.341,0.45,1.681
		l2.131,1.231c0.586,0.338,1.34,0.141,1.681-0.451C244.618,246.265,244.417,245.512,243.828,245.173z"/>
	<path fill="#38B33A" d="M273.227,252.5h-2.461c-0.68,0-1.23,0.32-1.23,1c0,0.679,0.551,1,1.23,1h2.461c0.68,0,1.23-0.321,1.23-1
		C274.457,252.82,273.906,252.5,273.227,252.5z"/>
	<path fill="#38B33A" d="M242.465,253.5c0-0.68-0.551-1-1.23-1h-2.461c-0.679,0-1.23,0.32-1.23,1c0,0.679,0.551,1,1.23,1h2.461
		C241.914,254.5,242.465,254.179,242.465,253.5z"/>
	<path fill="#38B33A" d="M257.592,252.751l-1.592,1.59l-1.591-1.59c-0.48-0.481-1.26-0.481-1.74,0
		c-0.48,0.48-0.615,1.259-0.135,1.74l1.966,2.101v4.412c0,0.68,0.82,1.23,1.5,1.23s1.5-0.551,1.5-1.23v-4.412l1.966-2.101
		c0.48-0.481,0.413-1.26-0.067-1.74C258.918,252.27,258.072,252.27,257.592,252.751L257.592,252.751z"/>
</g>
</svg>
