<?xml version="1.0" encoding="utf-8"?>
<!-- Generator: Adobe Illustrator 16.2.0, SVG Export Plug-In . SVG Version: 6.00 Build 0)  -->
<!DOCTYPE svg PUBLIC "-//W3C//DTD SVG 1.1//EN" "http://www.w3.org/Graphics/SVG/1.1/DTD/svg11.dtd">
<svg version="1.1" id="Capa_1" xmlns="http://www.w3.org/2000/svg" xmlns:xlink="http://www.w3.org/1999/xlink" x="0px" y="0px"
	 width="22px" height="22px" viewBox="-3 -3 22 22" enable-background="new -3 -3 22 22" xml:space="preserve">
<g>
	<g>
		<path fill="#BF986C" d="M18.732,17.432l-6.255-6.254c1.211-1.498,1.938-3.399,1.938-5.47C14.416,0.907,10.511-3,5.71-3
			C0.907-3-3,0.907-3,5.708c0,4.802,3.907,8.708,8.707,8.708c2.073,0,3.974-0.73,5.473-1.941l6.256,6.257
			C17.615,18.909,17.849,19,18.085,19c0.233,0,0.47-0.091,0.647-0.269C19.09,18.372,19.09,17.792,18.732,17.432z M5.71,12.582
			c-3.793,0-6.875-3.082-6.875-6.874c0-3.791,3.082-6.874,6.875-6.874c3.791,0,6.875,3.083,6.875,6.874
			C12.585,9.5,9.501,12.582,5.71,12.582z"/>
	</g>
</g>
<path fill="#BF986C" d="M9.5,5.625C9.5,6.108,9.108,6.5,8.625,6.5h-6.25C1.892,6.5,1.5,6.108,1.5,5.625v-0.25
	C1.5,4.892,1.892,4.5,2.375,4.5h6.25C9.108,4.5,9.5,4.892,9.5,5.375V5.625z"/>
<path fill="#BF986C" d="M6.5,8.5c0,0.553-0.448,1-1,1l0,0c0.215,0-1,0.067-1-1v-6c0-0.552,0.448-1,1-1l0,0c0.552,0,1,0.448,1,1V8.5z
	"/>
</svg>
