<?xml version="1.0" encoding="utf-8"?>
<!-- Generator: Adobe Illustrator 16.2.0, SVG Export Plug-In . SVG Version: 6.00 Build 0)  -->
<!DOCTYPE svg PUBLIC "-//W3C//DTD SVG 1.1//EN" "http://www.w3.org/Graphics/SVG/1.1/DTD/svg11.dtd">
<svg version="1.1" id="Capa_1" xmlns="http://www.w3.org/2000/svg" xmlns:xlink="http://www.w3.org/1999/xlink" x="0px" y="0px"
	 width="36px" height="33.612px" viewBox="237.5 239.195 36 33.612" enable-background="new 237.5 239.195 36 33.612"
	 xml:space="preserve">
<g>
	<path fill="#38B33A" d="M272.918,245.965c-12.214-2.428-11.289-2.301-11.566-2.254c-0.088,0.015-1.105,0.233-3.632,0.738
		c-1.06-3.054-3.933-5.253-7.343-5.253c-3.414,0-6.306,2.203-7.363,5.262l-3.995-0.742c-0.651-0.129-1.52,0.369-1.52,1.035v24.75
		c0,0.504,0.623,0.937,1.117,1.035c12.111,2.407,11.452,2.252,11.532,2.261c0.255,0.032-0.465,0.162,11.445-2.22l10.88,2.209
		c0.651,0.129,1.026-0.37,1.026-1.035v-24.75C273.5,246.496,273.412,246.063,272.918,245.965L272.918,245.965z M250.41,241.304
		c3.141,0,5.695,2.555,5.695,5.695c0,2.649-4.24,9.375-5.695,11.601c-1.454-2.224-5.695-8.951-5.695-11.601
		C244.715,243.859,247.27,241.304,250.41,241.304z M239.5,246.034c0,0,3.194,0.806,3.194,0.965c0,1.759,1.178,4.597,3.545,8.677
		c1.382,2.382,2.261,4.428,3.261,5.149v9.639l-10-1.83V246.034z M251.5,260.825c0-0.721,1.833-2.767,3.215-5.148
		c2.367-4.081,3.509-6.918,3.509-8.677c0-0.162,0.021-0.34,0.011-0.5l2.266-0.464v22.599l-9,1.828V260.825z M271.5,270.465l-9-1.831
		v-22.6l9,1.831V270.465z"/>
	<path fill="#38B33A" d="M250.41,250.304c1.822,0,3.305-1.482,3.305-3.305s-1.482-3.305-3.305-3.305s-3.305,1.482-3.305,3.305
		S248.588,250.304,250.41,250.304z M250.41,245.804c0.659,0,1.195,0.536,1.195,1.195s-0.536,1.195-1.195,1.195
		s-1.195-0.536-1.195-1.195S249.751,245.804,250.41,245.804z"/>
</g>
</svg>
