<?xml version="1.0" encoding="utf-8"?>
<!-- Generator: Adobe Illustrator 16.0.0, SVG Export Plug-In . SVG Version: 6.00 Build 0)  -->
<!DOCTYPE svg PUBLIC "-//W3C//DTD SVG 1.1//EN" "http://www.w3.org/Graphics/SVG/1.1/DTD/svg11.dtd">
<svg version="1.1" id="Capa_1" xmlns="http://www.w3.org/2000/svg" xmlns:xlink="http://www.w3.org/1999/xlink" x="0px" y="0px"
	 width="20px" height="20px" viewBox="950 440 20 20" enable-background="new 950 440 20 20" xml:space="preserve">
<g>
	<g>
		<path fill="#FFFFFF" d="M958.444,440h-7.704c-0.407,0-0.741,0.333-0.741,0.741v7.704c0,0.408,0.333,0.741,0.741,0.741h7.704
			c0.408,0,0.741-0.333,0.741-0.741v-7.704C959.185,440.333,958.852,440,958.444,440z M957.704,447.704h-6.222v-6.222h6.222V447.704
			z"/>
	</g>
</g>
<g>
	<g>
		<path fill="#FFFFFF" d="M969.26,440h-7.704c-0.407,0-0.741,0.333-0.741,0.741v7.704c0,0.408,0.334,0.741,0.741,0.741h7.704
			c0.407,0,0.74-0.333,0.74-0.741v-7.704C970,440.333,969.667,440,969.26,440z M968.519,447.704h-6.223v-6.222h6.223V447.704z"/>
	</g>
</g>
<g>
	<g>
		<path fill="#FFFFFF" d="M958.444,450.814h-7.704c-0.407,0-0.741,0.334-0.741,0.741v7.704c0,0.407,0.333,0.74,0.741,0.74h7.704
			c0.408,0,0.741-0.333,0.741-0.74v-7.704C959.185,451.148,958.852,450.814,958.444,450.814z M957.704,458.519h-6.222v-6.223h6.222
			V458.519z"/>
	</g>
</g>
<g>
	<g>
		<path fill="#FFFFFF" d="M969.26,450.814h-7.704c-0.407,0-0.741,0.334-0.741,0.741v7.704c0,0.407,0.334,0.74,0.741,0.74h7.704
			c0.407,0,0.74-0.333,0.74-0.74v-7.704C970,451.148,969.667,450.814,969.26,450.814z M968.519,458.519h-6.223v-6.223h6.223V458.519
			z"/>
	</g>
</g>
</svg>
