<?xml version="1.0" encoding="utf-8"?>
<!-- Generator: Adobe Illustrator 16.0.0, SVG Export Plug-In . SVG Version: 6.00 Build 0)  -->
<!DOCTYPE svg PUBLIC "-//W3C//DTD SVG 1.1//EN" "http://www.w3.org/Graphics/SVG/1.1/DTD/svg11.dtd">
<svg version="1.1" id="Capa_1" xmlns="http://www.w3.org/2000/svg" xmlns:xlink="http://www.w3.org/1999/xlink" x="0px" y="0px"
	 width="16px" height="16px" viewBox="952 442 16 16" enable-background="new 952 442 16 16" xml:space="preserve">
<path fill="#BF986C" d="M966.101,443.924h-12.202c-1.047,0-1.899,0.818-1.899,1.824v8.505c0,1.005,0.852,1.823,1.899,1.823h12.202
	c1.048,0,1.899-0.818,1.899-1.823v-8.505C968,444.742,967.148,443.924,966.101,443.924z M966.101,454.467h-12.202
	c-0.154,0-0.289-0.101-0.289-0.214v-7.38l5.519,4.659c0.113,0.096,0.257,0.148,0.405,0.148h0.932c0.148,0,0.292-0.053,0.405-0.148
	l5.519-4.659v7.381C966.39,454.366,966.255,454.467,966.101,454.467z M960,450.081l-5.368-4.547h10.735L960,450.081z"/>
</svg>
