<?xml version="1.0" encoding="utf-8"?>
<!-- Generator: Adobe Illustrator 16.2.0, SVG Export Plug-In . SVG Version: 6.00 Build 0)  -->
<!DOCTYPE svg PUBLIC "-//W3C//DTD SVG 1.1//EN" "http://www.w3.org/Graphics/SVG/1.1/DTD/svg11.dtd">
<svg version="1.1" id="Capa_1" xmlns="http://www.w3.org/2000/svg" xmlns:xlink="http://www.w3.org/1999/xlink" x="0px" y="0px"
	 width="16px" height="16px" viewBox="0 0 16 16" enable-background="new 0 0 16 16" xml:space="preserve">
<path fill="#FFFFFF" d="M14.102,1.924H1.898C0.852,1.924,0,2.742,0,3.748v8.506c0,1.004,0.852,1.822,1.898,1.822h12.203
	c1.047,0,1.898-0.818,1.898-1.822V3.748C16,2.742,15.148,1.924,14.102,1.924z M14.102,12.467H1.898
	c-0.154,0-0.289-0.102-0.289-0.213V4.873l5.52,4.658C7.242,9.629,7.387,9.68,7.533,9.68h0.934c0.146,0,0.291-0.053,0.404-0.148
	l5.52-4.658v7.381C14.391,12.365,14.256,12.467,14.102,12.467z M8,8.08L2.633,3.533h10.734L8,8.08z"/>
</svg>
