<svg xmlns="http://www.w3.org/2000/svg" width="16" height="16" viewBox="0 0 16 16"><defs><clipPath id="r5eka"><path fill="#fff" d="M1.28 9.545h8.96c.707 0 1.28.963 1.28 2.151v2.151c0 1.189-.573 2.152-1.28 2.152H1.28c-.707 0-1.28-.963-1.28-2.152v-2.15c0-1.19.573-2.152 1.28-2.152z"/></clipPath><clipPath id="r5ekb"><path fill="#fff" d="M3.2 5.301h8.96c.707 0 1.28.964 1.28 2.151v2.152c0 1.188-.573 2.152-1.28 2.152H3.2c-.707 0-1.28-.964-1.28-2.152V7.452c0-1.187.573-2.15 1.28-2.15z"/></clipPath><clipPath id="r5ekc"><path fill="#fff" d="M5.76 0h8.96C15.427 0 16 .961 16 2.15v2.151c0 1.188-.573 2.151-1.28 2.151H5.76c-.707 0-1.28-.963-1.28-2.15V2.15C4.48.962 5.053 0 5.76 0z"/></clipPath></defs><g><g><g><path fill="none" stroke="#003963" stroke-miterlimit="20" stroke-width="4" d="M1.28 9.545h8.96c.707 0 1.28.963 1.28 2.151v2.151c0 1.189-.573 2.152-1.28 2.152H1.28c-.707 0-1.28-.963-1.28-2.152v-2.15c0-1.19.573-2.152 1.28-2.152z" clip-path="url(&quot;#r5eka&quot;)"/></g><g><path fill="none" stroke="#003963" stroke-miterlimit="20" stroke-width="4" d="M3.2 5.301h8.96c.707 0 1.28.964 1.28 2.151v2.152c0 1.188-.573 2.152-1.28 2.152H3.2c-.707 0-1.28-.964-1.28-2.152V7.452c0-1.187.573-2.15 1.28-2.15z" clip-path="url(&quot;#r5ekb&quot;)"/></g><g><path fill="none" stroke="#003963" stroke-miterlimit="20" stroke-width="4" d="M5.76 0h8.96C15.427 0 16 .961 16 2.15v2.151c0 1.188-.573 2.151-1.28 2.151H5.76c-.707 0-1.28-.963-1.28-2.15V2.15C4.48.962 5.053 0 5.76 0z" clip-path="url(&quot;#r5ekc&quot;)"/></g></g></g></svg>