<?xml version="1.0" encoding="utf-8"?>
<!-- Generator: Adobe Illustrator 16.0.0, SVG Export Plug-In . SVG Version: 6.00 Build 0)  -->
<!DOCTYPE svg PUBLIC "-//W3C//DTD SVG 1.1//EN" "http://www.w3.org/Graphics/SVG/1.1/DTD/svg11.dtd">
<svg version="1.1" id="Layer_1" xmlns="http://www.w3.org/2000/svg" xmlns:xlink="http://www.w3.org/1999/xlink" x="0px" y="0px"
	 width="28px" height="20px" viewBox="242 246 28 20" enable-background="new 242 246 28 20" xml:space="preserve">
<g>
	<path fill="#FFFFFF" d="M268.129,256.518l-0.997-0.332c-0.167-0.535-1.493-4.777-1.659-5.312c-0.343-1.095-1.344-1.831-2.49-1.831
		h-3.504v-2.174c0-0.48-0.39-0.87-0.87-0.87h-15.652c-0.48,0-0.87,0.389-0.87,0.87v16.086c0,0.48,0.39,0.87,0.87,0.87h1.866
		c0.375,1.256,1.541,2.174,2.917,2.174s2.541-0.918,2.916-2.174h8.95c0.375,1.256,1.54,2.174,2.916,2.174s2.541-0.918,2.917-2.174
		h3.605c0.479,0,0.869-0.39,0.869-0.87v-3.964C269.913,257.868,269.196,256.873,268.129,256.518L268.129,256.518z M265.252,256
		h-2.296v-2.609h1.48L265.252,256z M243.826,247.739h13.913v14.348h-7.084c-0.375-1.256-1.54-2.174-2.916-2.174
		s-2.541,0.918-2.917,2.174h-0.997V247.739z M247.739,264.261c-0.719,0-1.305-0.585-1.305-1.305c0-0.719,0.585-1.304,1.305-1.304
		s1.304,0.585,1.304,1.304C249.043,263.676,248.458,264.261,247.739,264.261z M262.521,264.261c-0.719,0-1.304-0.585-1.304-1.305
		c0-0.719,0.585-1.304,1.304-1.304c0.72,0,1.305,0.585,1.305,1.304C263.826,263.676,263.241,264.261,262.521,264.261z
		 M265.438,262.087c-0.375-1.256-1.54-2.174-2.916-2.174s-2.541,0.918-2.916,2.174h-0.127v-11.304h3.504
		c0.382,0,0.716,0.245,0.83,0.61l0.081,0.259h-1.807c-0.48,0-0.869,0.389-0.869,0.87v4.347c0,0.48,0.389,0.87,0.869,0.87h4.207
		l1.285,0.429c0.355,0.118,0.595,0.45,0.595,0.824v0.486h-0.869c-0.48,0-0.87,0.389-0.87,0.869s0.39,0.87,0.87,0.87h0.869v0.869
		H265.438z"/>
	<path fill="#FFFFFF" d="M247.608,257.53c0.367,0.314,0.916,0.268,1.226-0.095l5.218-6.087c0.313-0.365,0.27-0.914-0.095-1.226
		c-0.364-0.313-0.914-0.271-1.226,0.094l-5.217,6.087C247.201,256.668,247.243,257.217,247.608,257.53L247.608,257.53z"/>
	<circle fill="#FFFFFF" cx="252.957" cy="256.435" r="1.304"/>
	<circle fill="#FFFFFF" cx="248.609" cy="251.218" r="1.304"/>
</g>
</svg>
