<?xml version="1.0" encoding="utf-8"?>
<!-- Generator: Adobe Illustrator 16.2.0, SVG Export Plug-In . SVG Version: 6.00 Build 0)  -->
<!DOCTYPE svg PUBLIC "-//W3C//DTD SVG 1.1//EN" "http://www.w3.org/Graphics/SVG/1.1/DTD/svg11.dtd">
<svg version="1.1" id="Capa_1" xmlns="http://www.w3.org/2000/svg" xmlns:xlink="http://www.w3.org/1999/xlink" x="0px" y="0px"
	 width="18px" height="18px" viewBox="0 0 18 18" enable-background="new 0 0 18 18" xml:space="preserve">
<g>
	<g>
		<g>
			<path fill="#FFFFFF" d="M960.422,443.148c0.012,0,0.023,0,0.035,0c1.715,0,3.318,0.662,4.523,1.867
				c1.215,1.215,1.879,2.834,1.871,4.561c-0.002,0.389,0.313,0.705,0.701,0.707h0.002c0.387,0,0.701-0.313,0.703-0.699
				c0.01-2.105-0.801-4.078-2.283-5.563c-1.471-1.471-3.43-2.279-5.518-2.279c-0.014,0-0.025,0-0.039,0
				c-0.389,0.002-0.701,0.318-0.699,0.707C959.721,442.836,960.035,443.148,960.422,443.148z"/>
			<path fill="#FFFFFF" d="M968.998,455.506c-0.023-0.697-0.314-1.348-0.816-1.83c-0.98-0.947-1.805-1.494-2.588-1.721
				c-1.082-0.313-2.082-0.027-2.977,0.844c-0.002,0.002-0.004,0.004-0.004,0.004l-0.953,0.945c-0.59-0.332-1.738-1.063-2.996-2.318
				l-0.092-0.094c-1.248-1.248-1.982-2.404-2.318-2.996l0.943-0.951c0-0.002,0.002-0.004,0.004-0.004
				c0.873-0.895,1.156-1.896,0.844-2.977c-0.227-0.783-0.773-1.607-1.721-2.59c-0.482-0.5-1.133-0.791-1.83-0.816
				c-0.695-0.025-1.363,0.217-1.883,0.684l-0.02,0.018c-0.012,0.008-0.02,0.018-0.029,0.025c-1.031,1.033-1.572,2.479-1.564,4.18
				c0.016,2.891,1.604,6.195,4.25,8.844c0.002,0.002,0.006,0.004,0.008,0.006c1.307,1.348,3.932,2.855,4.816,3.307
				c0.373,0.154,0.658-0.125,0.85-0.34c0.129-0.195,0.33-0.584,0.021-0.82c-0.715-0.299-2.152-0.799-4.701-3.146
				c-0.002-0.002-0.004-0.004-0.006-0.006c-2.387-2.391-3.818-5.324-3.832-7.85c-0.006-1.311,0.389-2.404,1.141-3.166l0.006-0.004
				c0.51-0.459,1.283-0.432,1.762,0.064c1.82,1.887,1.688,2.777,0.883,3.604l-1.303,1.313c-0.203,0.207-0.26,0.516-0.143,0.781
				c0.033,0.074,0.832,1.844,2.826,3.836l0.094,0.094c1.992,1.992,3.762,2.793,3.838,2.826c0.264,0.117,0.574,0.061,0.779-0.145
				l1.314-1.303c0.824-0.805,1.717-0.938,3.604,0.885c0.494,0.477,0.521,1.25,0.063,1.762l-0.004,0.004
				c-0.754,0.746-1.836,1.143-3.133,1.143c-0.012,0-0.021,0-0.033,0c-1.035-0.006-2.234-0.289-3.469-0.822
				c-0.357-0.154-0.771,0.01-0.926,0.367c-0.152,0.355,0.012,0.77,0.367,0.924c1.426,0.615,2.779,0.93,4.021,0.938
				c0.014,0,0.025,0,0.039,0c1.684,0,3.113-0.541,4.139-1.564c0.01-0.01,0.018-0.018,0.027-0.027l0.018-0.02
				C968.781,456.869,969.023,456.201,968.998,455.506z"/>
			<path fill="#FFFFFF" d="M963.988,446.012c-0.754-0.754-1.479-0.955-1.826-1.051c-0.373-0.104-0.762,0.115-0.863,0.49
				c-0.105,0.375,0.115,0.762,0.488,0.865c0.285,0.08,0.717,0.199,1.207,0.691c0.475,0.473,0.6,0.9,0.684,1.184l0.01,0.033
				c0.092,0.307,0.371,0.504,0.674,0.504c0.066,0,0.135-0.008,0.201-0.029c0.371-0.109,0.584-0.5,0.475-0.873l-0.01-0.031
				C964.918,447.426,964.717,446.738,963.988,446.012z"/>
		</g>
	</g>
</g>
</svg>
