<?xml version="1.0" encoding="utf-8"?>
<!-- Generator: Adobe Illustrator 16.0.0, SVG Export Plug-In . SVG Version: 6.00 Build 0)  -->
<!DOCTYPE svg PUBLIC "-//W3C//DTD SVG 1.1//EN" "http://www.w3.org/Graphics/SVG/1.1/DTD/svg11.dtd">
<svg version="1.1" id="Capa_1" xmlns="http://www.w3.org/2000/svg" xmlns:xlink="http://www.w3.org/1999/xlink" x="0px" y="0px"
	 width="18px" height="18px" viewBox="951 441 18 18" enable-background="new 951 441 18 18" xml:space="preserve">
<g>
	<g>
		<g>
			<path fill="#BF986C" d="M960.422,443.148c0.012,0,0.023,0,0.035,0c1.714,0,3.319,0.663,4.524,1.868
				c1.215,1.215,1.879,2.834,1.871,4.56c-0.002,0.388,0.312,0.705,0.7,0.707c0.001,0,0.002,0,0.003,0c0.387,0,0.701-0.313,0.703-0.7
				c0.01-2.104-0.801-4.078-2.283-5.561c-1.471-1.471-3.429-2.279-5.518-2.279c-0.013,0-0.026,0-0.039,0
				c-0.389,0.002-0.702,0.318-0.7,0.707C959.721,442.836,960.035,443.148,960.422,443.148z"/>
			<path fill="#BF986C" d="M968.998,455.505c-0.024-0.696-0.314-1.347-0.816-1.83c-0.981-0.946-1.805-1.493-2.589-1.72
				c-1.081-0.313-2.082-0.028-2.976,0.844c-0.002,0.002-0.003,0.003-0.004,0.004l-0.952,0.945c-0.591-0.332-1.74-1.063-2.996-2.319
				l-0.093-0.093c-1.248-1.249-1.983-2.404-2.318-2.997l0.943-0.951c0.001-0.001,0.003-0.003,0.004-0.004
				c0.873-0.894,1.157-1.895,0.844-2.976c-0.227-0.784-0.773-1.607-1.72-2.589c-0.484-0.501-1.134-0.792-1.83-0.817
				c-0.696-0.025-1.365,0.217-1.884,0.683l-0.02,0.018c-0.01,0.008-0.019,0.017-0.028,0.026c-1.032,1.032-1.573,2.477-1.564,4.179
				c0.014,2.891,1.603,6.196,4.25,8.843c0.002,0.002,0.004,0.004,0.007,0.007c1.306,1.347,3.931,2.855,4.816,3.307
				c0.373,0.154,0.659-0.125,0.849-0.34c0.13-0.195,0.332-0.585,0.023-0.821c-0.716-0.299-2.153-0.799-4.701-3.146
				c-0.003-0.003-0.004-0.005-0.007-0.007c-2.387-2.39-3.818-5.323-3.831-7.849c-0.007-1.31,0.388-2.404,1.14-3.165l0.005-0.005
				c0.511-0.458,1.285-0.431,1.762,0.064c1.82,1.888,1.688,2.779,0.884,3.604l-1.303,1.313c-0.204,0.206-0.261,0.516-0.143,0.781
				c0.033,0.074,0.833,1.843,2.827,3.836l0.093,0.093c1.993,1.993,3.762,2.794,3.837,2.827c0.265,0.118,0.575,0.061,0.781-0.144
				l1.313-1.304c0.825-0.804,1.717-0.936,3.604,0.885c0.494,0.477,0.522,1.25,0.063,1.762l-0.005,0.005
				c-0.754,0.746-1.836,1.141-3.133,1.141c-0.011,0-0.021,0-0.032,0c-1.036-0.006-2.235-0.289-3.469-0.821
				c-0.357-0.154-0.771,0.01-0.925,0.367c-0.153,0.356,0.011,0.77,0.367,0.924c1.426,0.615,2.778,0.93,4.02,0.937
				c0.014,0,0.026,0,0.04,0c1.684,0,3.114-0.541,4.139-1.565c0.009-0.009,0.018-0.018,0.026-0.027l0.018-0.02
				C968.781,456.87,969.023,456.201,968.998,455.505z"/>
			<path fill="#BF986C" d="M963.989,446.012c-0.755-0.754-1.479-0.955-1.826-1.051c-0.374-0.104-0.762,0.116-0.865,0.491
				c-0.104,0.374,0.116,0.761,0.49,0.865c0.284,0.079,0.715,0.198,1.207,0.69c0.474,0.474,0.599,0.901,0.683,1.184l0.01,0.034
				c0.091,0.306,0.37,0.504,0.674,0.504c0.066,0,0.134-0.009,0.2-0.029c0.372-0.11,0.585-0.501,0.475-0.874l-0.01-0.032
				C964.918,447.425,964.716,446.739,963.989,446.012z"/>
		</g>
	</g>
</g>
</svg>
