<?xml version="1.0" encoding="utf-8"?>
<!-- Generator: Adobe Illustrator 16.0.0, SVG Export Plug-In . SVG Version: 6.00 Build 0)  -->
<!DOCTYPE svg PUBLIC "-//W3C//DTD SVG 1.1//EN" "http://www.w3.org/Graphics/SVG/1.1/DTD/svg11.dtd">
<svg version="1.1" id="Capa_1" xmlns="http://www.w3.org/2000/svg" xmlns:xlink="http://www.w3.org/1999/xlink" x="0px" y="0px"
	 width="24px" height="21px" viewBox="948 439.5 24 21" enable-background="new 948 439.5 24 21" xml:space="preserve">
<g>
	<g>
		<path fill="#FFFFFF" d="M969.429,443.143h-3.616l-0.695-2.78c-0.096-0.381-0.438-0.649-0.831-0.649h-8.572
			c-0.393,0-0.736,0.268-0.832,0.649l-0.695,2.78h-3.616c-1.42,0-2.571,1.151-2.571,2.571v12c0,1.421,1.151,2.572,2.571,2.572
			h18.857c1.42,0,2.571-1.151,2.571-2.572v-12C972,444.294,970.849,443.143,969.429,443.143z M970.286,457.714
			c0,0.474-0.384,0.857-0.857,0.857h-18.857c-0.473,0-0.857-0.384-0.857-0.857v-12c0-0.474,0.384-0.857,0.857-0.857h4.286
			c0.394,0,0.736-0.267,0.832-0.649l0.695-2.779h7.232l0.695,2.779c0.096,0.382,0.438,0.649,0.831,0.649h4.286
			c0.474,0,0.857,0.384,0.857,0.857V457.714L970.286,457.714z"/>
	</g>
</g>
<g>
	<g>
		<path fill="#FFFFFF" d="M960,447.429c-2.367,0-4.286,1.918-4.286,4.285c0,2.367,1.918,4.286,4.286,4.286s4.286-1.919,4.286-4.286
			C964.283,449.349,962.366,447.432,960,447.429z M960,454.286c-1.42,0-2.571-1.151-2.571-2.572c0-1.42,1.151-2.571,2.571-2.571
			s2.571,1.151,2.571,2.571C962.571,453.135,961.42,454.286,960,454.286z"/>
	</g>
</g>
</svg>
