<?xml version="1.0" encoding="utf-8"?>
<!-- Generator: Adobe Illustrator 16.0.0, SVG Export Plug-In . SVG Version: 6.00 Build 0)  -->
<!DOCTYPE svg PUBLIC "-//W3C//DTD SVG 1.1//EN" "http://www.w3.org/Graphics/SVG/1.1/DTD/svg11.dtd">
<svg version="1.1" id="Capa_1" xmlns="http://www.w3.org/2000/svg" xmlns:xlink="http://www.w3.org/1999/xlink" x="0px" y="0px"
	 width="21px" height="24px" viewBox="949.5 438 21 24" enable-background="new 949.5 438 21 24" xml:space="preserve">
<g>
	<g>
		<path fill="#FFFFFF" d="M967.967,442.173C966.134,439.521,963.231,438,960,438c-3.23,0-6.134,1.521-7.966,4.173
			c-1.823,2.638-2.244,5.979-1.128,8.93c0.299,0.806,0.773,1.589,1.407,2.322l7.049,8.279c0.16,0.188,0.393,0.296,0.639,0.296
			s0.479-0.108,0.638-0.296l7.048-8.276c0.637-0.739,1.11-1.521,1.405-2.32C970.211,448.151,969.79,444.811,967.967,442.173z
			 M967.521,450.52c-0.229,0.617-0.602,1.227-1.106,1.813c-0.002,0.001-0.003,0.003-0.005,0.005l-6.41,7.529l-6.415-7.534
			c-0.505-0.587-0.878-1.196-1.108-1.818c-0.923-2.44-0.573-5.203,0.937-7.387c1.515-2.192,3.915-3.449,6.586-3.449
			c2.67,0,5.071,1.257,6.585,3.449C968.096,445.312,968.446,448.074,967.521,450.52z"/>
	</g>
</g>
<g>
	<g>
		<path fill="#FFFFFF" d="M960,442.979c-2.591,0-4.699,2.108-4.699,4.699s2.107,4.7,4.699,4.7c2.591,0,4.699-2.108,4.699-4.7
			C964.699,445.087,962.591,442.979,960,442.979z M960,450.699c-1.666,0-3.021-1.355-3.021-3.021c0-1.666,1.355-3.021,3.021-3.021
			c1.666,0,3.021,1.354,3.021,3.021C963.021,449.344,961.666,450.699,960,450.699z"/>
	</g>
</g>
</svg>
