<svg xmlns="http://www.w3.org/2000/svg" width="17" height="17" viewBox="0 0 17 17"><g><g><path fill="#bfbfbf" d="M8.5 12a2.5 2.5 0 1 1 0 4.999 2.5 2.5 0 0 1 0-5zm6 0a2.5 2.5 0 1 1 0 4.999 2.5 2.5 0 0 1 0-5zm-12 0a2.5 2.5 0 1 1 0 4.999 2.5 2.5 0 0 1 0-5zm6-6.001a2.5 2.5 0 1 1 0 5 2.5 2.5 0 0 1 0-5zm6 0a2.5 2.5 0 1 1 0 5 2.5 2.5 0 0 1 0-5zm-12 0a2.5 2.5 0 1 1 0 5 2.5 2.5 0 0 1 0-5zm6-6a2.5 2.5 0 1 1 0 5 2.5 2.5 0 0 1 0-5zm6 0a2.5 2.5 0 1 1 0 5 2.5 2.5 0 0 1 0-5zm-12 0a2.5 2.5 0 1 1 0 5 2.5 2.5 0 0 1 0-5z"/></g></g></svg>