<?xml version="1.0" encoding="utf-8"?>
<!-- Generator: Adobe Illustrator 16.2.0, SVG Export Plug-In . SVG Version: 6.00 Build 0)  -->
<!DOCTYPE svg PUBLIC "-//W3C//DTD SVG 1.1//EN" "http://www.w3.org/Graphics/SVG/1.1/DTD/svg11.dtd">
<svg version="1.1" id="Capa_1" xmlns="http://www.w3.org/2000/svg" xmlns:xlink="http://www.w3.org/1999/xlink" x="0px" y="0px"
	 width="20px" height="20px" viewBox="245.5 246.5 20 20" enable-background="new 245.5 246.5 20 20" xml:space="preserve">
<g>
	<path fill="#BF986C" d="M263.071,251.5h-0.57v-2.57c0-1.615-1.291-2.43-2.906-2.43h-7.188c-1.615,0-2.906,0.814-2.906,2.43v2.57
		h-1.438c-1.615,0-2.563,0.854-2.563,2.469v4.688c0,1.615,0.696,2.844,2.311,2.844h0.689v2.742c0,0.97,0.765,2.258,1.734,2.258
		h10.531c0.969,0,1.734-1.288,1.734-2.258V261.5h0.57c1.615,0,2.43-1.229,2.43-2.844v-4.688
		C265.5,252.353,264.686,251.5,263.071,251.5z M250.5,248.929c0-0.969,0.937-1.43,1.906-1.43h7.188c0.969,0,1.906,0.46,1.906,1.43
		v2.57h-11V248.929z M261.5,264.242c0,0.323-0.313,1.258-0.734,1.258h-10.531c-0.453,0-0.734-0.935-0.734-1.258V258.5h12V264.242z
		 M264.5,258.656c0,0.97-0.461,1.844-1.43,1.844h-0.57v-2h0.375c0.323,0,0.586-0.177,0.586-0.5s-0.263-0.5-0.586-0.5h-14.75
		c-0.324,0-0.586,0.177-0.586,0.5s0.262,0.5,0.586,0.5h0.375v2h-0.656c-0.969,0-1.344-1-1.344-1.844v-4.688
		c0-0.938,0.656-1.469,1.625-1.469h14.945c0.969,0,1.43,0.5,1.43,1.469V258.656z"/>
	<path fill="#BF986C" d="M257.563,259.5h-3.125c-0.324,0-0.586,0.177-0.586,0.5s0.262,0.5,0.586,0.5h3.125
		c0.323,0,0.586-0.177,0.586-0.5S257.886,259.5,257.563,259.5z"/>
	<path fill="#BF986C" d="M257.563,262.5h-3.125c-0.324,0-0.586,0.177-0.586,0.5s0.262,0.5,0.586,0.5h3.125
		c0.323,0,0.586-0.177,0.586-0.5S257.886,262.5,257.563,262.5z"/>
	<path fill="#BF986C" d="M251,253.5h-1.875c-0.324,0-0.586,0.176-0.586,0.5s0.262,0.5,0.586,0.5H251c0.324,0,0.586-0.176,0.586-0.5
		S251.324,253.5,251,253.5z"/>
</g>
</svg>
