<?xml version="1.0" encoding="utf-8"?>
<!-- Generator: Adobe Illustrator 16.2.0, SVG Export Plug-In . SVG Version: 6.00 Build 0)  -->
<!DOCTYPE svg PUBLIC "-//W3C//DTD SVG 1.1//EN" "http://www.w3.org/Graphics/SVG/1.1/DTD/svg11.dtd">
<svg version="1.1" id="Capa_1" xmlns="http://www.w3.org/2000/svg" xmlns:xlink="http://www.w3.org/1999/xlink" x="0px" y="0px"
	 width="20px" height="20px" viewBox="22.5 22.5 20 20" enable-background="new 22.5 22.5 20 20" xml:space="preserve">
<g>
	<g>
		<path fill="#38B33A" d="M32.5,28.579c-2.046,0-3.711,1.665-3.711,3.711S30.454,36,32.5,36c2.046,0,3.711-1.664,3.711-3.71
			S34.546,28.579,32.5,28.579z M32.5,34.828c-1.4,0-2.539-1.139-2.539-2.539c0-1.4,1.139-2.539,2.539-2.539
			c1.4,0,2.539,1.139,2.539,2.539C35.039,33.689,33.9,34.828,32.5,34.828z"/>
	</g>
</g>
<g>
	<g>
		<path fill="#38B33A" d="M41.914,31.68c-0.323,0-0.586,0.262-0.586,0.586c0,4.879-3.948,8.828-8.828,8.828
			c-4.879,0-8.828-3.947-8.828-8.828c0-2.949,1.461-5.668,3.871-7.306l-0.293,1.722c-0.054,0.319,0.16,0.622,0.479,0.676
			c0.32,0.055,0.622-0.161,0.676-0.479l0.503-2.957c0.055-0.32-0.165-0.623-0.479-0.676l-2.957-0.503
			c-0.319-0.054-0.622,0.16-0.676,0.479c-0.054,0.319,0.16,0.622,0.479,0.676l1.401,0.239c-2.568,1.842-4.176,4.831-4.176,8.129
			c0,5.527,4.473,10,10,10s10-4.472,10-10C42.5,31.942,42.237,31.68,41.914,31.68z"/>
	</g>
</g>
</svg>
