<?xml version="1.0" encoding="utf-8"?>
<!-- Generator: Adobe Illustrator 16.2.0, SVG Export Plug-In . SVG Version: 6.00 Build 0)  -->
<!DOCTYPE svg PUBLIC "-//W3C//DTD SVG 1.1//EN" "http://www.w3.org/Graphics/SVG/1.1/DTD/svg11.dtd">
<svg version="1.1" id="Capa_1" xmlns="http://www.w3.org/2000/svg" xmlns:xlink="http://www.w3.org/1999/xlink" x="0px" y="0px"
	 width="20px" height="20px" viewBox="0 0 20 20" enable-background="new 0 0 20 20" xml:space="preserve">
<g>
	<g>
		<path fill="#FFFFFF" d="M10,6.29C7.954,6.29,6.289,7.955,6.289,10c0,2.046,1.665,3.71,3.711,3.71s3.711-1.664,3.711-3.71
			C13.711,7.955,12.046,6.29,10,6.29z M10,12.539c-1.4,0-2.539-1.139-2.539-2.54C7.461,8.599,8.6,7.46,10,7.46
			S12.539,8.599,12.539,10C12.539,11.4,11.4,12.539,10,12.539z"/>
	</g>
</g>
<g>
	<g>
		<path fill="#FFFFFF" d="M19.414,9.179c-0.323,0-0.586,0.262-0.586,0.586c0,4.879-3.948,8.829-8.828,8.829
			c-4.879,0-8.828-3.947-8.828-8.829c0-2.949,1.461-5.668,3.871-7.306L4.75,4.181C4.695,4.5,4.91,4.804,5.229,4.857
			c0.32,0.056,0.623-0.16,0.676-0.479l0.504-2.957c0.055-0.32-0.165-0.623-0.479-0.676L2.973,0.243
			C2.652,0.189,2.35,0.402,2.296,0.722c-0.054,0.318,0.16,0.621,0.479,0.676l1.4,0.238C1.607,3.478,0,6.467,0,9.765
			c0,5.528,4.473,10,10,10s10-4.472,10-10C20,9.441,19.736,9.179,19.414,9.179z"/>
	</g>
</g>
</svg>
