<?xml version="1.0" encoding="utf-8"?>
<!-- Generator: Adobe Illustrator 16.2.0, SVG Export Plug-In . SVG Version: 6.00 Build 0)  -->
<!DOCTYPE svg PUBLIC "-//W3C//DTD SVG 1.1//EN" "http://www.w3.org/Graphics/SVG/1.1/DTD/svg11.dtd">
<svg version="1.1" id="Capa_1" xmlns="http://www.w3.org/2000/svg" xmlns:xlink="http://www.w3.org/1999/xlink" x="0px" y="0px"
	 width="16px" height="16px" viewBox="0.5 0.5 16 16" enable-background="new 0.5 0.5 16 16" xml:space="preserve">
<g>
	<g>
		<path fill="#38B33A" d="M15.875,0.5H4.625C4.28,0.5,4,0.78,4,1.125v6.75H1.125C0.78,7.875,0.5,8.155,0.5,8.5v7.375
			c0,0.346,0.28,0.625,0.625,0.625H8.5c0.345,0,0.625-0.279,0.625-0.625V13h6.75c0.346,0,0.625-0.279,0.625-0.625V1.125
			C16.5,0.78,16.221,0.5,15.875,0.5z M7.875,15.25H1.75V9.125H4v3.25C4,12.721,4.28,13,4.625,13h3.25V15.25z M7.875,11.75H5.25
			V9.125h2.625V11.75z M15.25,11.75H9.125V8.5c0-0.345-0.28-0.625-0.625-0.625H5.25V1.75h10V11.75z"/>
	</g>
</g>
</svg>
