<?xml version="1.0" encoding="utf-8"?>
<!-- Generator: Adobe Illustrator 16.2.0, SVG Export Plug-In . SVG Version: 6.00 Build 0)  -->
<!DOCTYPE svg PUBLIC "-//W3C//DTD SVG 1.1//EN" "http://www.w3.org/Graphics/SVG/1.1/DTD/svg11.dtd">
<svg version="1.1" id="Capa_1" xmlns="http://www.w3.org/2000/svg" xmlns:xlink="http://www.w3.org/1999/xlink" x="0px" y="0px"
	 width="16px" height="16px" viewBox="24.5 24.5 16 16" enable-background="new 24.5 24.5 16 16" xml:space="preserve">
<g>
	<g>
		<g>
			<path fill="#38B33A" d="M32.469,35.375c-0.345,0-0.625,0.28-0.625,0.625v2.656c0,0.345,0.28,0.625,0.625,0.625
				s0.625-0.28,0.625-0.625V36C33.094,35.655,32.814,35.375,32.469,35.375z"/>
			<path fill="#38B33A" d="M25.125,28.25c0.345,0,0.625-0.28,0.625-0.625V25.75h1.875c0.345,0,0.625-0.28,0.625-0.625
				S27.97,24.5,27.625,24.5h-2.5c-0.345,0-0.625,0.28-0.625,0.625v2.5C24.5,27.97,24.78,28.25,25.125,28.25z"/>
			<path fill="#38B33A" d="M27.656,35.375c-0.345,0-0.625,0.28-0.625,0.625v1.094c0,0.345,0.28,0.625,0.625,0.625
				s0.625-0.28,0.625-0.625V36C28.281,35.655,28.001,35.375,27.656,35.375z"/>
			<path fill="#38B33A" d="M27.625,39.25H25.75v-1.875c0-0.345-0.28-0.625-0.625-0.625S24.5,37.03,24.5,37.375v2.5
				c0,0.345,0.28,0.625,0.625,0.625h2.5c0.345,0,0.625-0.28,0.625-0.625S27.97,39.25,27.625,39.25z"/>
			<path fill="#38B33A" d="M30.063,35.375c-0.345,0-0.625,0.28-0.625,0.625v1.094c0,0.345,0.28,0.625,0.625,0.625
				s0.625-0.28,0.625-0.625V36C30.688,35.655,30.408,35.375,30.063,35.375z"/>
			<path fill="#38B33A" d="M39.875,24.5h-2.5c-0.345,0-0.625,0.28-0.625,0.625s0.28,0.625,0.625,0.625h1.875v1.875
				c0,0.345,0.28,0.625,0.625,0.625s0.625-0.28,0.625-0.625v-2.5C40.5,24.78,40.22,24.5,39.875,24.5z"/>
			<path fill="#38B33A" d="M34.969,35.375c-0.345,0-0.625,0.28-0.625,0.625v1.094c0,0.345,0.28,0.625,0.625,0.625
				s0.625-0.28,0.625-0.625V36C35.594,35.655,35.313,35.375,34.969,35.375z"/>
			<path fill="#38B33A" d="M39.875,33.188h-1.813v-5.563c0-0.345-0.28-0.625-0.625-0.625s-0.625,0.28-0.625,0.625v5.563h-1.219
				v-5.563c0-0.345-0.28-0.625-0.625-0.625s-0.625,0.28-0.625,0.625v5.563h-1.25v-5.563c0-0.345-0.28-0.625-0.625-0.625
				s-0.625,0.28-0.625,0.625v5.563h-1.156v-5.563c0-0.345-0.28-0.625-0.625-0.625s-0.625,0.28-0.625,0.625v5.563h-1.156v-5.563
				c0-0.345-0.28-0.625-0.625-0.625s-0.625,0.28-0.625,0.625v5.563h-1.906c-0.345,0-0.625,0.28-0.625,0.625s0.28,0.625,0.625,0.625
				h14.75c0.345,0,0.625-0.28,0.625-0.625S40.22,33.188,39.875,33.188z"/>
			<path fill="#38B33A" d="M37.438,37.719c0.345,0,0.625-0.28,0.625-0.625V36c0-0.345-0.28-0.625-0.625-0.625
				s-0.625,0.28-0.625,0.625v1.094C36.813,37.438,37.093,37.719,37.438,37.719z"/>
			<path fill="#38B33A" d="M39.875,36.75c-0.345,0-0.625,0.28-0.625,0.625v1.875h-1.875c-0.345,0-0.625,0.28-0.625,0.625
				s0.28,0.625,0.625,0.625h2.5c0.345,0,0.625-0.28,0.625-0.625v-2.5C40.5,37.03,40.22,36.75,39.875,36.75z"/>
		</g>
	</g>
</g>
</svg>
