<?xml version="1.0" encoding="utf-8"?>
<!-- Generator: Adobe Illustrator 16.0.0, SVG Export Plug-In . SVG Version: 6.00 Build 0)  -->
<!DOCTYPE svg PUBLIC "-//W3C//DTD SVG 1.1//EN" "http://www.w3.org/Graphics/SVG/1.1/DTD/svg11.dtd">
<svg version="1.1" id="Capa_1" xmlns="http://www.w3.org/2000/svg" xmlns:xlink="http://www.w3.org/1999/xlink" x="0px" y="0px"
	 width="16px" height="16px" viewBox="952 442 16 16" enable-background="new 952 442 16 16" xml:space="preserve">
<g>
	<g>
		<path fill="#BF986C" d="M967.805,456.862l-4.55-4.55c0.882-1.089,1.412-2.472,1.412-3.979c0-3.492-2.841-6.333-6.333-6.333
			S952,444.842,952,448.334c0,3.492,2.841,6.333,6.333,6.333c1.506,0,2.89-0.53,3.979-1.412l4.55,4.551
			c0.13,0.13,0.301,0.195,0.472,0.195c0.17,0,0.341-0.065,0.471-0.195C968.065,457.545,968.065,457.123,967.805,456.862z
			 M958.334,453.334c-2.757,0-5-2.242-5-5c0-2.757,2.243-5,5-5c2.757,0,5,2.243,5,5
			C963.334,451.092,961.091,453.334,958.334,453.334z"/>
	</g>
</g>
</svg>
