<?xml version="1.0" encoding="utf-8"?>
<!-- Generator: Adobe Illustrator 16.0.0, SVG Export Plug-In . SVG Version: 6.00 Build 0)  -->
<!DOCTYPE svg PUBLIC "-//W3C//DTD SVG 1.1//EN" "http://www.w3.org/Graphics/SVG/1.1/DTD/svg11.dtd">
<svg version="1.1" id="Layer_1" xmlns="http://www.w3.org/2000/svg" xmlns:xlink="http://www.w3.org/1999/xlink" x="0px" y="0px"
	 width="24px" height="24px" viewBox="244 244 24 24" enable-background="new 244 244 24 24" xml:space="preserve">
<path fill="#FFFFFF" d="M256.753,268h-1.506c-1.218,0-2.209-0.991-2.209-2.209v-0.51c-0.518-0.166-1.021-0.375-1.505-0.625
	l-0.361,0.361c-0.875,0.876-2.276,0.85-3.125,0l-1.064-1.064c-0.851-0.85-0.875-2.251,0-3.125l0.361-0.361
	c-0.25-0.483-0.459-0.986-0.625-1.504h-0.509c-1.218,0-2.209-0.991-2.209-2.21v-1.506c0-1.218,0.991-2.209,2.209-2.209h0.509
	c0.166-0.518,0.375-1.021,0.625-1.504l-0.361-0.361c-0.875-0.874-0.851-2.275,0-3.125l1.065-1.064c0.851-0.853,2.252-0.874,3.125,0
	l0.361,0.361c0.483-0.25,0.986-0.459,1.504-0.625v-0.509c0-1.218,0.991-2.209,2.209-2.209h1.506c1.219,0,2.21,0.991,2.21,2.209
	v0.509c0.518,0.166,1.021,0.375,1.504,0.625l0.361-0.361c0.875-0.876,2.275-0.85,3.125,0l1.064,1.065c0.851,0.85,0.875,2.25,0,3.125
	l-0.361,0.361c0.25,0.483,0.459,0.986,0.625,1.504h0.51c1.218,0,2.209,0.991,2.209,2.209v1.506c0,1.219-0.991,2.21-2.209,2.21h-0.51
	c-0.166,0.518-0.375,1.021-0.625,1.504l0.361,0.361c0.875,0.874,0.851,2.274,0,3.125l-1.064,1.064c-0.852,0.853-2.252,0.874-3.125,0
	l-0.361-0.361c-0.483,0.25-0.986,0.459-1.504,0.625v0.51C258.963,267.009,257.972,268,256.753,268z M251.768,263.18
	c0.671,0.397,1.395,0.697,2.148,0.892c0.31,0.08,0.527,0.36,0.527,0.681v1.039c0,0.442,0.36,0.803,0.803,0.803h1.506
	c0.443,0,0.804-0.36,0.804-0.803v-1.039c0-0.32,0.217-0.601,0.527-0.681c0.754-0.194,1.477-0.494,2.148-0.892
	c0.276-0.163,0.628-0.119,0.854,0.108l0.735,0.735c0.317,0.317,0.826,0.31,1.136,0l1.065-1.065c0.309-0.308,0.318-0.817,0-1.135
	l-0.735-0.736c-0.228-0.227-0.271-0.579-0.108-0.854c0.397-0.672,0.697-1.395,0.892-2.148c0.081-0.311,0.36-0.527,0.682-0.527h1.038
	c0.442,0,0.803-0.36,0.803-0.804v-1.506c0-0.443-0.36-0.803-0.803-0.803h-1.038c-0.321,0-0.601-0.217-0.682-0.527
	c-0.194-0.754-0.494-1.477-0.892-2.148c-0.163-0.276-0.119-0.628,0.108-0.855l0.735-0.735c0.318-0.318,0.31-0.827,0-1.136
	l-1.065-1.065c-0.309-0.309-0.817-0.318-1.135,0l-0.736,0.736c-0.227,0.227-0.578,0.271-0.854,0.108
	c-0.672-0.397-1.395-0.697-2.148-0.892c-0.311-0.081-0.527-0.36-0.527-0.681v-1.038c0-0.443-0.36-0.803-0.804-0.803h-1.506
	c-0.443,0-0.803,0.36-0.803,0.803v1.038c0,0.321-0.217,0.601-0.527,0.681c-0.754,0.195-1.477,0.495-2.148,0.892
	c-0.276,0.163-0.628,0.119-0.855-0.108l-0.735-0.735c-0.317-0.317-0.827-0.31-1.136,0l-1.065,1.065
	c-0.309,0.308-0.319,0.817,0,1.136l0.735,0.736c0.227,0.227,0.271,0.579,0.108,0.855c-0.397,0.671-0.697,1.394-0.892,2.148
	c-0.08,0.31-0.36,0.527-0.681,0.527h-1.038c-0.443,0-0.803,0.36-0.803,0.803v1.506c0,0.443,0.36,0.804,0.803,0.804h1.038
	c0.321,0,0.601,0.217,0.681,0.527c0.195,0.754,0.495,1.477,0.892,2.148c0.163,0.275,0.119,0.628-0.108,0.854l-0.735,0.735
	c-0.318,0.317-0.31,0.827,0,1.136l1.065,1.065c0.309,0.309,0.818,0.318,1.136,0l0.735-0.735
	C251.08,263.121,251.428,262.979,251.768,263.18L251.768,263.18z"/>
<path fill="#FFFFFF" d="M256,261.222c-2.879,0-5.222-2.343-5.222-5.222c0-2.879,2.342-5.222,5.222-5.222
	c2.879,0,5.222,2.342,5.222,5.222C261.222,258.879,258.879,261.222,256,261.222z M256,252.185c-2.104,0-3.815,1.711-3.815,3.815
	c0,2.104,1.711,3.815,3.815,3.815c2.104,0,3.815-1.712,3.815-3.815C259.815,253.896,258.104,252.185,256,252.185z"/>
</svg>
