<?xml version="1.0" encoding="utf-8"?>
<!-- Generator: Adobe Illustrator 16.2.0, SVG Export Plug-In . SVG Version: 6.00 Build 0)  -->
<!DOCTYPE svg PUBLIC "-//W3C//DTD SVG 1.1//EN" "http://www.w3.org/Graphics/SVG/1.1/DTD/svg11.dtd">
<svg version="1.1" id="Слой_1" xmlns="http://www.w3.org/2000/svg" xmlns:xlink="http://www.w3.org/1999/xlink" x="0px" y="0px"
	 width="16px" height="16px" viewBox="187 187 16 16" enable-background="new 187 187 16 16" xml:space="preserve">
<path fill="#38B33A" d="M198.179,187.133l-0.404,0.328h-0.019v0.016l-5.226,4.246h-0.02v0.016L187,196.216l0.827,1.018l2.062-1.675
	v3.375h-2.622v3.934H203v-15.734H198.179z M196.444,190.231l1.312-1.065v3.867h-1.312V190.231z M193.822,192.362l1.311-1.065V195
	h-1.311V192.362z M191.2,194.493l1.311-1.065v3.54H191.2V194.493z M201.688,201.557h-13.111v-1.313h2.622v-1.967h2.623v-1.966h2.622
	v-1.967h2.622v-1.967h2.622V201.557z M201.688,191.067h-2.622v-2.622h2.622V191.067z"/>
</svg>
