<?xml version="1.0" encoding="utf-8"?>
<!-- Generator: Adobe Illustrator 16.2.0, SVG Export Plug-In . SVG Version: 6.00 Build 0)  -->
<!DOCTYPE svg PUBLIC "-//W3C//DTD SVG 1.1//EN" "http://www.w3.org/Graphics/SVG/1.1/DTD/svg11.dtd">
<svg version="1.1" id="Capa_1" xmlns="http://www.w3.org/2000/svg" xmlns:xlink="http://www.w3.org/1999/xlink" x="0px" y="0px"
	 width="16px" height="16px" viewBox="0 0 16 16" enable-background="new 0 0 16 16" xml:space="preserve">
<g>
	<g>
		<g>
			<path fill="#38B33A" d="M3.703,0.999v2.766c0,0.552,0.448,1,1,1h2.766V7.53c0,0.552,0.448,1,1,1h2.766v2.766c0,0.553,0.447,1,1,1
				H15v2.705H1V0.999H3.703 M4.234-0.001H0.469C0.211-0.001,0,0.21,0,0.468V15.53c0,0.26,0.211,0.471,0.469,0.471h15.063
				c0.26,0,0.469-0.211,0.469-0.471v-3.766c0-0.258-0.209-0.469-0.469-0.469h-3.297V7.999c0-0.26-0.209-0.469-0.469-0.469H8.469
				V4.233c0-0.26-0.209-0.469-0.469-0.469H4.703V0.468C4.703,0.208,4.492-0.001,4.234-0.001L4.234-0.001z"/>
		</g>
	</g>
</g>
</svg>
