<?xml version="1.0" encoding="utf-8"?>
<!-- Generator: Adobe Illustrator 16.2.0, SVG Export Plug-In . SVG Version: 6.00 Build 0)  -->
<!DOCTYPE svg PUBLIC "-//W3C//DTD SVG 1.1//EN" "http://www.w3.org/Graphics/SVG/1.1/DTD/svg11.dtd">
<svg version="1.1" id="Layer_1" xmlns="http://www.w3.org/2000/svg" xmlns:xlink="http://www.w3.org/1999/xlink" x="0px" y="0px"
	 width="16px" height="16px" viewBox="0.25 0.5 16 16" enable-background="new 0.25 0.5 16 16" xml:space="preserve">
<g>
	<g>
		<path fill="#38B33A" d="M12.702,7.336c0.169,0.17,0.467,0.17,0.638,0l2.779-2.779c0.087-0.088,0.133-0.203,0.131-0.328
			c0.002-0.119-0.044-0.235-0.131-0.322l-2.781-2.779c-0.169-0.17-0.468-0.168-0.638,0.002l-0.242,0.244
			c-0.176,0.176-0.176,0.469,0,0.645l1.584,1.594H2.465l1.576-1.587c0.175-0.175,0.175-0.474,0-0.649L3.799,1.133
			c-0.169-0.17-0.468-0.17-0.638,0L0.381,3.912C0.294,3.999,0.248,4.115,0.25,4.24C0.248,4.359,0.294,4.477,0.381,4.563l2.78,2.781
			C3.247,7.43,3.36,7.475,3.481,7.475c0.121,0,0.234-0.045,0.319-0.131l0.242-0.24C4.127,7.02,4.174,6.91,4.174,6.789
			S4.127,6.563,4.042,6.477L2.413,4.863h11.668L12.46,6.469c-0.177,0.178-0.177,0.449,0,0.625L12.702,7.336z"/>
	</g>
</g>
<rect x="1" y="10" fill="#38B33A" width="15" height="1"/>
<rect x="1" y="10" fill="#38B33A" width="1" height="6"/>
<rect x="15" y="10" fill="#38B33A" width="1" height="6"/>
</svg>
