<?xml version="1.0" encoding="utf-8"?>
<!-- Generator: Adobe Illustrator 16.2.0, SVG Export Plug-In . SVG Version: 6.00 Build 0)  -->
<!DOCTYPE svg PUBLIC "-//W3C//DTD SVG 1.1//EN" "http://www.w3.org/Graphics/SVG/1.1/DTD/svg11.dtd">
<svg version="1.1" id="Capa_1" xmlns="http://www.w3.org/2000/svg" xmlns:xlink="http://www.w3.org/1999/xlink" x="0px" y="0px"
	 width="18px" height="18px" viewBox="-0.5 -0.5 18 18" enable-background="new -0.5 -0.5 18 18" xml:space="preserve">
<g>
	<path fill="#38B33A" d="M16.985,6.46l-2.174-0.269c-0.065-0.177-0.138-0.352-0.217-0.523l1.348-1.728
		c0.183-0.233,0.162-0.565-0.048-0.775l-2.063-2.061c-0.209-0.209-0.54-0.229-0.774-0.048l-1.727,1.347
		c-0.172-0.079-0.346-0.151-0.523-0.216l-0.269-2.174C10.503-0.279,10.254-0.5,9.958-0.5H7.042c-0.296,0-0.545,0.221-0.582,0.515
		L6.191,2.188C6.014,2.253,5.839,2.325,5.669,2.404L3.941,1.057C3.708,0.875,3.376,0.896,3.167,1.105L1.105,3.166
		C0.896,3.375,0.876,3.708,1.058,3.941l1.348,1.728c-0.08,0.17-0.152,0.345-0.217,0.523L0.014,6.46
		C-0.279,6.497-0.5,6.746-0.5,7.042v2.916c0,0.296,0.221,0.545,0.515,0.581l2.174,0.269c0.064,0.178,0.137,0.352,0.216,0.523
		l-1.347,1.727c-0.182,0.234-0.162,0.565,0.048,0.775l2.061,2.063c0.209,0.209,0.542,0.229,0.775,0.047l1.728-1.348
		c0.17,0.079,0.345,0.151,0.522,0.217l0.269,2.175C6.497,17.278,6.746,17.5,7.042,17.5h2.916c0.296,0,0.545-0.221,0.581-0.514
		l0.269-2.175c0.178-0.065,0.352-0.138,0.523-0.217l1.727,1.348c0.234,0.183,0.567,0.162,0.775-0.047l2.063-2.063
		c0.209-0.21,0.229-0.541,0.047-0.775l-1.348-1.727c0.08-0.172,0.152-0.346,0.217-0.523l2.174-0.269
		c0.293-0.036,0.515-0.285,0.515-0.581V7.042C17.5,6.746,17.278,6.497,16.985,6.46z M16.327,9.438l-2.026,0.251
		c-0.229,0.028-0.422,0.189-0.489,0.413c-0.106,0.354-0.249,0.697-0.423,1.02c-0.109,0.205-0.089,0.455,0.055,0.638l1.257,1.61
		l-1.33,1.33l-1.61-1.258c-0.183-0.143-0.433-0.163-0.638-0.054c-0.322,0.174-0.666,0.315-1.02,0.422
		c-0.222,0.068-0.385,0.26-0.412,0.49l-0.252,2.026H7.561l-0.25-2.026c-0.029-0.23-0.19-0.422-0.413-0.49
		c-0.355-0.106-0.698-0.248-1.02-0.422C5.673,13.279,5.423,13.3,5.24,13.442L3.629,14.7l-1.329-1.33l1.256-1.611
		c0.143-0.182,0.164-0.432,0.054-0.637c-0.173-0.322-0.315-0.666-0.422-1.02C3.121,9.879,2.929,9.718,2.699,9.689L0.672,9.438V7.56
		l2.027-0.25c0.23-0.029,0.422-0.19,0.489-0.412c0.107-0.355,0.249-0.698,0.422-1.02C3.721,5.672,3.7,5.422,3.557,5.239l-1.256-1.61
		l1.329-1.328l1.61,1.256C5.423,3.699,5.673,3.72,5.877,3.611c0.322-0.173,0.665-0.315,1.02-0.422
		C7.119,3.122,7.281,2.929,7.31,2.699l0.25-2.027h1.878L9.69,2.699c0.027,0.23,0.19,0.422,0.412,0.489
		c0.354,0.107,0.697,0.249,1.02,0.422c0.205,0.109,0.455,0.088,0.638-0.054l1.61-1.256l1.33,1.329l-1.258,1.61
		c-0.143,0.183-0.163,0.433-0.054,0.638c0.174,0.323,0.316,0.667,0.422,1.021c0.068,0.222,0.26,0.383,0.49,0.413l2.026,0.25V9.438
		L16.327,9.438z"/>
	<path fill="#38B33A" d="M8.5,4.847c-2.014,0-3.653,1.639-3.653,3.653c0,2.015,1.639,3.652,3.653,3.652
		c2.015,0,3.653-1.638,3.653-3.652C12.152,6.486,10.515,4.847,8.5,4.847z M8.5,10.98c-1.368,0-2.48-1.112-2.48-2.48
		S7.132,6.019,8.5,6.019S10.98,7.132,10.98,8.5S9.867,10.98,8.5,10.98z"/>
</g>
</svg>
